<svg xmlns="http://www.w3.org/2000/svg" width="517.961" height="496.145" viewBox="0 0 517.961 496.145">
  <g id="Group_67" data-name="Group 67" transform="translate(11614.097 12789.823)">
    <path id="Path_1604" data-name="Path 1604" d="M-11614.1-12186.82c2.316-10.355,6.324-19.73,14.488-27.043,11.789-10.559,25.941-11.762,40.727-10.961,14.348.777,25.117,8.16,33.84,18.8,14.3,17.469,28.352,35.145,42.363,52.852a9.007,9.007,0,0,0,8.035,3.863c13.816-.223,27.645-.121,41.465-.082,21.047.063,34.48,13.316,34.773,34.258.035,2.68,0,5.359,0,8.5h86.059a23.143,23.143,0,0,0,.359-4.105c-1.75-21.277,10.395-36.7,31.93-39.023a5.154,5.154,0,0,0,.391-1.395c-.191-22.91.125-45.84-.781-68.723-.719-18.133-18.5-36.031-36.637-36.594q-37.852-1.154-75.758-.02c-18.859.6-35.934,18.258-37.168,37.2-.785,11.918-.523,23.9-.773,35.855-.125,6.137-2.605,10.184-7.031,11.7-6.551,2.254-13.926-1.7-14.07-8.793-.352-16.785-2.3-33.75,1.895-50.324,6.852-27.016,31.707-47.172,59.621-47.8,23.418-.539,46.867-.59,70.277,0,33.469.836,61,28.6,61.844,62.145.52,20.383.141,40.789.168,61.184v5.918c8.844,0,17.227.18,25.594-.16,1.566-.062,3.344-1.969,4.523-3.43,14.3-17.7,28.738-35.277,42.664-53.262,17.723-22.883,49.469-22.656,67.281-12.672,14.434,8.1,21.57,21.184,21.66,37.5.246,47.2.355,94.395-.055,141.59-.246,28.254-23.887,51.625-52.145,52.145-21.4.4-42.812.262-64.211,0-4.4-.051-6.441,1.18-8.133,5.262-8.578,20.664-17.488,41.2-26.34,61.75-2.891,6.707-7.016,9.262-12.746,8.172-5.773-1.1-9.391-5.934-8.488-11.7a26.686,26.686,0,0,1,1.957-6.219c9.773-22.906,19.758-45.723,29.309-68.723,2.914-7.027,7.246-10.121,14.945-10.023,23.086.293,46.18.105,69.277.1,14.129,0,25.488-5.277,31.59-18.461a41.112,41.112,0,0,0,3.484-16.566c.27-45,.2-90.008.129-135.008-.023-15.539-8.672-23.4-24.113-24.344-12.648-.766-21.559,4.164-29.066,13.734-14.453,18.426-29.34,36.52-43.812,54.93-3.895,4.961-8.32,7.148-14.68,7.008-14.984-.332-29.984-.1-44.98-.105-12.867-.016-16.047,3.191-16.012,16.2v5.273c2.105.1,3.75.238,5.391.238,27.137.016,54.277-.062,81.41.094a8.72,8.72,0,0,0,7.93-4.059c8.152-11.156,16.531-22.145,24.8-33.207,3.023-4.035,6.742-6.766,12.027-5.707,7.582,1.52,10.879,9.8,6.527,16.707-2.687,4.258-5.957,8.16-8.988,12.2-6.16,8.227-12.477,16.34-18.406,24.73a14.935,14.935,0,0,0-2.609,7.785c-.293,10.781-.066,21.57-.137,32.359-.066,9.723-4.125,13.766-13.875,13.82-11.8.066-23.6,0-35.4.02-13.523.035-20.1,4.773-24.355,17.527q-16.687,50.033-33.379,100.063a35.531,35.531,0,0,1-2.68,6.516,10.318,10.318,0,0,1-12.207,4.641,10.169,10.169,0,0,1-7.312-10.328,24.113,24.113,0,0,1,1.3-6.387q16.887-50.771,33.887-101.5c7.172-21.379,22.148-32.145,44.754-32.258,8.918-.047,17.832-.008,27.152-.008v-21.137h-301.211v21.137c9.242,0,18.285.008,27.336,0,11.848-.008,22.6,3.051,31.629,11.121a44.948,44.948,0,0,1,12.652,19.77q17.361,51.943,34.59,103.922a19.613,19.613,0,0,1,.934,3.906c.637,5.613-2.266,10.223-7.324,11.781a10.252,10.252,0,0,1-12.863-6.055c-2.629-6.551-4.723-13.316-6.953-20.016q-14.221-42.609-28.387-85.238c-4.18-12.543-10.824-17.4-23.914-17.449-11.8-.047-23.6.023-35.4-.02-10.355-.035-14.289-4-14.328-14.395-.035-10.453.207-20.906-.145-31.348a16.656,16.656,0,0,0-2.949-8.672c-8.461-11.758-17.363-23.2-25.937-34.879-5.406-7.359-3.25-15.539,4.512-18.066,4.621-1.5,8.988.266,12.945,5.508,8.336,11.02,16.684,22.031,24.828,33.191a8.7,8.7,0,0,0,7.949,4.016c27.133-.145,54.273-.082,81.41-.082h5.465c-.25-4.758.016-9.273-.832-13.574-1.109-5.605-5.445-8.094-12.828-8.125-15.844-.059-31.691-.242-47.531.09-6.387.137-10.75-2.152-14.633-7.086-14.8-18.8-30.2-37.133-44.73-56.141-9.516-12.453-21.965-14.066-35.707-11.551-10.164,1.867-16.359,10.836-16.512,22.512-.156,11.961-.039,23.93-.039,35.895q0,49.811,0,99.617c-.016,14.352,5.313,25.852,18.707,31.961,5.16,2.352,11.363,3.258,17.109,3.348,22.918.363,45.848.32,68.77.055,7.422-.086,11.824,2.738,14.691,9.625,9.789,23.445,19.992,46.723,29.957,70.094,3.742,8.777.523,15.863-7.574,17.066-5.414.8-9.387-1.836-12.2-8.371-8.516-19.781-17.234-39.484-25.289-59.457-2.309-5.727-4.992-7.7-11.258-7.535-19.035.5-38.105-.359-57.129.309-29.309,1.023-53-20.473-56.508-45.449-.062-.426-.508-.8-.773-1.2Z" transform="translate(0.001 -381.52)" fill="#fff"/>
    <path id="Path_1605" data-name="Path 1605" d="M-11614.1-12529.008c2.395-10.609,6.383-20.289,13.559-28.836,20.055-23.883,59.742-24.41,80.027-.687,19.4,22.688,19.176,50.934-.6,73.309-19.984,22.621-58.8,22.148-78.742-.637-7.437-8.5-11.578-18.3-14.246-28.984Zm86.156,6.895a32.145,32.145,0,0,0-31.812-32.363,32.427,32.427,0,0,0-32.762,32.063c-.168,17.582,14.84,32.609,32.457,32.5A32.429,32.429,0,0,0-11527.941-12522.113Z" transform="translate(0.001 -159.692)" fill="#fff"/>
    <path id="Path_1606" data-name="Path 1606" d="M-9940.105-12468.914c-29.508-.082-54.1-24.883-53.777-54.246.316-29.484,24.555-53.6,53.918-53.656,29.52-.059,54.023,24.484,53.98,54.047A54.2,54.2,0,0,1-9940.105-12468.914Zm.355-86.148a32.156,32.156,0,0,0-32.379,31.8,32.426,32.426,0,0,0,32.055,32.777c17.574.176,32.609-14.824,32.512-32.449A32.438,32.438,0,0,0-9939.75-12555.062Z" transform="translate(-1210.282 -159.113)" fill="#fff"/>
    <path id="Path_1607" data-name="Path 1607" d="M-10695.824-12735.9a54.072,54.072,0,0,1-53.586,53.969c-29.492.25-54.09-24.3-54.074-53.984a53.965,53.965,0,0,1,54.09-53.914A53.972,53.972,0,0,1-10695.824-12735.9Zm-54.059,32.211a32.377,32.377,0,0,0,32.563-32.242,32.649,32.649,0,0,0-32.109-32.312c-17.566-.258-32.566,14.656-32.555,32.375A32.359,32.359,0,0,0-10749.883-12703.687Z" transform="translate(-605.52 0.005)" fill="#fff"/>
    <path id="Path_1608" data-name="Path 1608" d="M-10632.207-11424.687h20.9v150.6h-20.9Z" transform="translate(-733.462 -1019.743)" fill="#fff"/>
    <path id="Path_1609" data-name="Path 1609" d="M-10611.437-12085.062h-21.012V-12106h21.012Z" transform="translate(-733.281 -510.811)" fill="#fff"/>
  </g>
</svg>
