<svg xmlns="http://www.w3.org/2000/svg" width="544.154" height="543.803" viewBox="0 0 544.154 543.803">
  <g id="Group_50" data-name="Group 50" transform="translate(0 0)">
    <path id="Path_695" data-name="Path 695" d="M-4883.531-8945.832c-27.8-27.806-55.958-55.973-83.387-83.4v83.4Z" transform="translate(5303.335 9041.083)" fill="#f1a31d"/>
    <path id="Path_696" data-name="Path 696" d="M-4830.178-7950.716c-1.245,6.031-2.188,12.144-3.78,18.084-13.735,51.289-61.326,86.135-113.513,83.243-54-2.991-97.544-42.391-105.653-95.587-9.073-59.576,32.727-117.043,92.227-126.771,60.491-9.9,117.98,30.276,128.743,89.95.587,3.282,1.313,6.552,1.976,9.817Zm-71.549-58.447c-17.15,17.2-34.485,34.588-52.448,52.6-6.461-6.982-12.91-13.957-19.043-20.574q-12.123,12.092-22.065,22.014c14.051,14.108,28.317,28.435,41.854,42.034,24.416-24.418,49.262-49.278,73.912-73.931C-4886.33-7993.812-4893.577-8001.04-4901.727-8009.163Z" transform="translate(5374.332 8264.91)" fill="#f1a31d"/>
    <path id="Path_697" data-name="Path 697" d="M-6755.449-8411.025V-8923h31.724v479.889h367.883v32.086Z" transform="translate(6755.449 8954.828)" fill="#f1a31d"/>
    <path id="Path_698" data-name="Path 698" d="M-6414.078-8612.822v-479.389h239.735V-8964.7h128.222c0,10.272,0,19.8-.008,29.312,0,3.733-2.863,2.922-4.98,2.979a141.379,141.379,0,0,0-61.565,16.164c-53.451,27.5-84.5,87.268-76.3,146.917,8.3,60.4,54.456,110.151,113.359,121.794,9.5,1.87,19.228,2.547,29.193,3.818v30.893Zm207.621-319.245h-143.307v31.289h143.307Zm-143.442-33.054h127.4v-31.33h-127.4Zm127.484,96.826H-6349.94v31.457h127.525Zm-.037,64.129H-6349.8v31.307h127.349Zm-127.464,95.133h127.41v-31.314h-127.41Z" transform="translate(6478.289 9092.211)" fill="#f1a31d"/>
    <path id="Path_699" data-name="Path 699" d="M-4883.531-8945.832h-83.387v-83.4C-4939.489-9001.8-4911.328-8973.638-4883.531-8945.832Z" transform="translate(5303.335 9041.083)" fill="#f1a31d"/>
  </g>
</svg>
