<svg xmlns="http://www.w3.org/2000/svg" width="410.975" height="498.515" viewBox="0 0 410.975 498.515">
  <g id="Group_40" data-name="Group 40" transform="translate(0)">
    <path id="Path_662" data-name="Path 662" d="M808.54,393.921h5.6c14.44,0,28.883-.028,43.324.018,4.824.016,7.306,2.122,7.261,5.9-.046,3.757-2.5,5.7-7.409,5.758-4.543.05-9.087.012-13.63.012H808.592v92.5h5.559q21.419,0,42.84.01c5.242.01,7.791,2.015,7.735,5.917-.056,3.878-2.554,5.728-7.908,5.748-8.113.03-16.226.008-24.342.008H808.6v92.5h5.081q21.419,0,42.84.006c5.678.008,8.275,1.915,8.208,5.935-.065,3.988-2.588,5.726-8.41,5.738q-12.9.023-25.8,0H808.6V729.83c14.07,0,27.836,0,41.6,0,12.143,0,15.538-3.424,15.538-15.669q0-204.949,0-409.9a44.839,44.839,0,0,0-.127-5.35c-.649-5.4-4.4-9.8-9.748-9.909-15.689-.319-31.388-.114-47.322-.114C808.54,323.888,808.54,358.549,808.54,393.921Zm-160.7,259.6H796.369V561.669H647.836Zm.025,75.97H796.22V665.825H647.861Zm.019-180.132h148.5V457.5h-62.6a5.055,5.055,0,0,0-.382,1.165c-.036,11.518-.014,23.035-.088,34.553-.091,14.685-9.746,24.3-24.495,24.348-17.2.056-34.394.014-51.592.014h-9.345C647.88,528.364,647.88,538.683,647.88,549.358Zm-79.53,64.852c-.226.518-.454.8-.454,1.083-.032,34.37-.118,68.742,0,103.113.021,6.487,5.027,11.3,11.615,11.353,18.319.145,36.64.032,54.961-.008a2.951,2.951,0,0,0,1.113-.45V614.211ZM796.243,445.332V354.245H733.605v91.087ZM635.55,602.177V517.9H568.169v84.274Zm97.986-261.182h62.682V289.028H733.536Z" transform="translate(-454.781 -231.32)" fill="#fff"/>
    <path id="Path_663" data-name="Path 663" d="M258.1,0c6.741,2.533,8.848,7.566,8.838,14.514q-.173,122.857-.08,245.717c0,10.469-3.894,14.335-14.421,14.337q-118.966.012-237.93,0C3.978,274.566.083,270.7.083,260.235Q.069,137.374,0,14.518C-.01,7.556,2.14,2.558,8.84,0ZM124.623,140.258c1.593,1.511,2.773,2.6,3.916,3.725q35.673,35.219,71.347,70.443c4.034,3.98,7.4,4.47,9.995,1.374,3.249-3.874.444-6.511-2.144-9.113q-.687-.69-1.378-1.376-34.574-34.6-69.147-69.2c-1.2-1.2-2.317-2.495-3.584-3.868,24.61-24.606,48.819-48.8,73.009-73.013,1.368-1.37,3.319-2.724,3.693-4.378.462-2.047.325-5.272-.956-6.4-1.521-1.338-4.575-1.434-6.875-1.193-1.284.135-2.417,2.007-3.564,3.154Q164.165,85.159,129.4,119.919c-1.207,1.2-2.491,2.331-4.537,4.241L97.58,94.066c.952-2.256,2.8-5.551,3.753-9.087,3.574-13.278-2.59-27.487-14.711-34.6-12.308-7.223-26.466-5.644-36.8,4.1C38.663,65,36.054,78.968,42.794,92.091c6.457,12.573,19.932,18.855,33.823,16.617,4.611-.743,8.629-5.975,13.355-2.935,4,2.574,7.014,6.688,10.463,10.124,1.84,1.832,3.622,3.723,5.517,5.5,3.743,3.5,7.548,6.931,10.785,9.893L87.742,160.122c-1.523-.711-3.546-1.726-5.621-2.616-14.166-6.064-29.678-.948-37.982,12.505C35.6,183.837,38.569,200.127,51.6,211a29.953,29.953,0,0,0,39.228-.96c11.892-10.682,14.437-23.776,7.345-38.183-.962-1.953-1.866-3.422.247-5.475C107.136,157.916,115.652,149.24,124.623,140.258Z" transform="translate(0)" fill="#3aa3db"/>
    <path id="Path_664" data-name="Path 664" d="M1776.81,393.929V288.9c15.936,0,31.635-.2,47.322.114,5.349.11,9.1,4.512,9.747,9.909a44.772,44.772,0,0,1,.127,5.35q.007,204.95,0,409.9c0,12.245-3.4,15.667-15.537,15.669-13.768,0-27.533,0-41.6,0V613.976h21.912q12.9,0,25.8,0c5.821-.01,8.345-1.75,8.409-5.738.068-4.02-2.529-5.929-8.208-5.935q-21.419-.027-42.841-.006h-5.08V509.8h23.877c8.113,0,16.229.022,24.343-.008,5.356-.02,7.851-1.87,7.908-5.748.055-3.9-2.494-5.907-7.735-5.917q-21.419-.045-42.841-.01h-5.558v-92.5h35.095c4.545,0,9.087.038,13.63-.012,4.909-.054,7.362-2,7.409-5.758.046-3.773-2.439-5.881-7.262-5.9-14.44-.046-28.883-.018-43.323-.018C1780.655,393.929,1778.9,393.929,1776.81,393.929Z" transform="translate(-1423.051 -231.327)" fill="#3aa3db"/>
    <path id="Path_665" data-name="Path 665" d="M969.65,1751.083V1659.23h148.532v91.853Z" transform="translate(-776.595 -1328.88)" fill="#3aa3db"/>
    <path id="Path_666" data-name="Path 666" d="M969.78,2246.033v-63.664h148.358v63.664Z" transform="translate(-776.698 -1747.865)" fill="#3aa3db"/>
    <path id="Path_667" data-name="Path 667" d="M969.87,1227.863v-31.784h9.346c17.2,0,34.393.042,51.591-.012,14.75-.05,24.4-9.663,24.5-24.35.071-11.517.051-23.036.087-34.553a5.006,5.006,0,0,1,.382-1.165h62.6v91.861C1068.974,1227.863,1019.6,1227.863,969.87,1227.863Z" transform="translate(-776.771 -909.825)" fill="#3aa3db"/>
    <path id="Path_668" data-name="Path 668" d="M568.344,1923.129h67.233v115.092a2.958,2.958,0,0,1-1.113.45c-18.321.04-36.642.153-54.961.008-6.586-.052-11.592-4.866-11.615-11.353-.117-34.371-.032-68.744,0-103.113C567.893,1923.931,568.122,1923.646,568.344,1923.129Z" transform="translate(-454.776 -1540.238)" fill="#3aa3db"/>
    <path id="Path_669" data-name="Path 669" d="M1463.079,708.5H1400.44V617.41h62.639Z" transform="translate(-1121.615 -494.485)" fill="#3aa3db"/>
    <path id="Path_670" data-name="Path 670" d="M636.89,1523.684H569.51V1439.41H636.89Z" transform="translate(-456.122 -1152.827)" fill="#3aa3db"/>
    <path id="Path_671" data-name="Path 671" d="M1400.089,341.816V289.85h62.682v51.967Z" transform="translate(-1121.334 -232.142)" fill="#3aa3db"/>
    <path id="Path_672" data-name="Path 672" d="M294.957,855.264c0,10.738-9.72,20.2-20.748,20.2-10.134,0-19.044-8.983-19.175-19.338-.141-11.015,9.318-20.727,20.123-20.661A20.1,20.1,0,0,1,294.957,855.264Z" transform="translate(-204.256 -669.128)" fill="#3aa3db"/>
    <path id="Path_673" data-name="Path 673" d="M296.851,309.439c.02,10.294-9.2,19.127-19.932,19.1a19.161,19.161,0,0,1-19.33-19.492c-.044-11.333,8.467-20.443,19.052-20.392C287.506,288.715,296.831,298.3,296.851,309.439Z" transform="translate(-206.304 -231.187)" fill="#3aa3db"/>
  </g>
</svg>
