<svg xmlns="http://www.w3.org/2000/svg" width="533.198" height="533.233" viewBox="0 0 533.198 533.233">
  <g id="Group_51" data-name="Group 51" transform="translate(0 0)">
    <path id="Path_700" data-name="Path 700" d="M-1073.6-12632.223v-17.785h5.965q50.017,0,100.032,0c1.667,0,3.339.059,5-.027,7.535-.437,13.088-5.953,13.209-13.09a13.126,13.126,0,0,0-13.324-13.465c-36.493-.117-72.988-.215-109.478.1a38.136,38.136,0,0,0-28.245,12.516c-15.651,17-34.81,23.758-57.709,23.035-24.964-.773-49.975-.168-75.363-.168v-17.539h52.956v-6.773q0-128.355,0-256.7c0-19.629,10.541-30.148,30.183-30.168h23.173c0-6.023-.053-11.539.009-17.043.181-15.906,11.476-27.234,27.378-27.395,8.472-.082,16.946-.012,25.968-.012,0-6.016-.052-11.52.009-17.027.178-15.922,11.464-27.387,27.363-27.395q106.7-.111,213.4-.051a27.748,27.748,0,0,1,20.42,8.5q25.139,25.166,50.305,50.289c6.129,6.105,8.693,13.4,8.684,22.027q-.128,134.174-.052,268.367v7.234c2.666-1.09,4.662-1.957,6.689-2.738,16.715-6.449,35.225.535,43.05,16.23a33.4,33.4,0,0,1-13.312,44.363c-18.98,10.777-38.375,20.816-57.617,31.133-43.538,23.328-87.174,46.48-130.616,69.98-34.8,18.84-70.907,22.8-108.962,11.711-33.2-9.66-66.6-18.641-99.953-27.773a42.548,42.548,0,0,0-10.936-1.375c-33.9-.1-67.8-.059-101.7-.059h-6.449v-17.785h5.944c32.047,0,64.1.168,96.143-.094a101.5,101.5,0,0,1,28.953,4.043c33.079,9.418,66.2,18.691,99.419,27.594,28.533,7.645,56.51,5,82.563-8.715,64.491-33.961,128.615-68.625,192.842-103.086,8.9-4.773,11.87-13.867,7.695-22.043-4.135-8.109-12.949-10.871-22.375-6.73-56.051,24.6-112.138,49.121-168.065,73.992-14.24,6.34-27.865,6.707-42.377.918-30.4-12.117-61.039-23.625-91.63-35.23a29.175,29.175,0,0,0-9.13-1.7C-1060-12632.4-1066.484-12632.223-1073.6-12632.223Zm133.145-302.285h-6.158q-101.695,0-203.39,0c-10.206,0-12.766,2.563-12.766,12.785q-.005,128.338,0,256.688v5.578c19.813,2.6,36.027-2.184,49.447-16.75a54.879,54.879,0,0,1,40.565-18.039c37.042-.437,74.093-.34,111.139-.109,15.648.1,28.567,12.707,29.948,28.2,1.373,15.4-8.667,29.684-23.9,32.84-6.073,1.258-12.5.922-18.772,1.059-7.384.152-14.772.035-22.158.035,17.361,7.707,34.811,14.3,52.152,21.16a30.2,30.2,0,0,0,24.732-.5c11.958-5.418,23.911-10.875,36.081-15.785,4.441-1.785,5.421-4.246,5.414-8.652q-.184-115.02-.089-230.02v-6.254c-11.79,0-22.875.047-33.958-.008-17.009-.082-28.2-11.23-28.278-28.184C-940.5-12911.543-940.455-12922.641-940.455-12934.508Zm133.852,88.859v26.949h17.031v17.668h-17.064v26.746h16.98v17.875h-17.091v26.559h17.2v17.672h-17.2v50.84c10.463-4.57,20.345-9.109,30.421-13.184,3.911-1.586,4.934-3.734,4.928-7.836q-.2-136.389-.1-272.781v-6.035c-11.778,0-22.7.031-33.616-.016-17.4-.059-28.547-11.125-28.625-28.379-.038-8.156-.007-16.3-.007-24.453v-9.387H-1044.6a25.3,25.3,0,0,0-2.777.051c-5.137.52-8.291,3.348-8.565,8.5-.312,5.855-.072,11.742-.072,18.117h7.035q80.572,0,161.148-.047c8.409-.016,15.64,2.359,21.611,8.336q25.348,25.33,50.691,50.668a27.511,27.511,0,0,1,8.474,20.98c-.075,2.887-.012,5.785-.012,9.25H-789.6v17.676h-17.2v26.555h17.12v17.68Zm-36.477,160.027v18.043H-860.2v29.77c10.324-4.531,20.152-9.16,30.243-13.121,4.252-1.664,5.2-3.969,5.195-8.23q-.189-125.531-.094-251.078v-6.5c-12.152,0-23.769.125-35.382-.027-15.259-.2-26.623-11.562-26.833-26.785-.141-10.18-.018-20.363-.049-30.551,0-1.578-.208-3.152-.33-4.855h-210.567a22.5,22.5,0,0,0-3.329.082c-4.577.7-7.617,3.359-7.908,7.961-.379,6.027-.093,12.1-.093,18.621h7.054q80.561,0,161.124-.047c8.411-.02,15.634,2.371,21.6,8.344q25.342,25.33,50.682,50.664a27.5,27.5,0,0,1,8.469,20.98c-.076,2.887-.013,5.777-.013,9.246h17.468v17.668h-17.009v26.746h16.929v17.672h-17.045v26.75h17.162v17.664H-860v26.754h17v17.863h-17.118v26.363Zm27.138-323.684c0,7.156-.078,14.172.028,21.176.073,4.875,2.673,8.512,7.437,8.867,7.616.57,15.305.152,22.8.152C-795.787-12989.191-805.732-12999.121-815.941-13009.3Zm-24.434,74.719c-9.491-9.5-19.453-19.477-28.921-28.973,0,5.848-.1,12.855.031,19.863.094,5.133,2.887,8.664,7.953,9C-853.863-12934.227-846.359-12934.586-840.375-12934.586Zm-82.279,14.41c0,6.9-.087,13.895.03,20.883.086,5.141,2.854,8.7,7.912,9.035,7.455.492,14.966.129,22.233.129C-902.568-12900.18-912.52-12910.094-922.654-12920.176Z" transform="translate(1233.515 13041.211)" fill="#f1a31d"/>
    <path id="Path_701" data-name="Path 701" d="M-294.986-11412.6h-230.3v-17.3h230.3Z" transform="translate(623.15 11652.552)" fill="#f1a31d"/>
    <path id="Path_702" data-name="Path 702" d="M-526.532-11091.789v-17.137h230.5v17.137Z" transform="translate(624.224 11375.934)" fill="#f1a31d"/>
    <path id="Path_703" data-name="Path 703" d="M-526.645-10770v-17.109h230.5V-10770Z" transform="translate(624.321 11098.587)" fill="#f1a31d"/>
    <path id="Path_704" data-name="Path 704" d="M-525.28-11752.863h194.851v17.3H-525.28Z" transform="translate(623.145 11930.888)" fill="#f1a31d"/>
    <path id="Path_705" data-name="Path 705" d="M-526.719-12056.754v-17.09h177.341v17.09Z" transform="translate(624.385 12207.514)" fill="#f1a31d"/>
  </g>
</svg>
