<svg xmlns="http://www.w3.org/2000/svg" width="753.881" height="754.091" viewBox="0 0 753.881 754.091">
  <g id="Group_49" data-name="Group 49" transform="translate(0 0)">
    <path id="Path_688" data-name="Path 688" d="M-595.07-5491.605c13.951,2.992,27.605,6.809,38.786,16.273a159.767,159.767,0,0,1,13.789,13.207c10.854,11.676,24.08,17.5,40.012,16.473,22.5-1.445,42.756,3.93,60.048,18.9a74.661,74.661,0,0,1,22.518,33.863c5.832,17.863,17.771,28.926,35.358,35.477,35.694,13.293,53.95,40.6,52.605,78.816-.662,18.785,5.491,33.508,19.219,46.324,27.931,26.082,34.2,57.547,18.411,92.238-7.893,17.336-7.863,33.555.035,50.891,15.777,34.613,9.421,66.277-18.491,92.215-13.768,12.8-19.831,27.57-19.174,46.352,1.335,38.164-16.952,65.449-52.674,78.762-17.583,6.551-28.95,17.84-35.4,35.492-13.007,35.6-41.823,54.586-79.565,52.684-18.56-.937-33.2,5.371-45.465,19.254-23.851,26.992-59.223,34.414-91.608,18.781-17.471-8.434-33.89-8.508-51.494-.5-34.725,15.789-66.17,9.555-92.23-18.367-12.812-13.727-27.517-19.918-46.305-19.258-38.54,1.355-65.464-16.895-79.09-53.262-6.377-17.016-17.424-28.168-34.458-34.551-36.658-13.738-54.759-40.691-53.411-79.742.626-18.215-4.79-33.187-18.726-44.984-15.721-13.3-23.68-30.8-27.332-50.621v-17.672c4.1-11.422,8.317-22.789,12.267-34.266a47.456,47.456,0,0,0,0-31.6c-3.95-11.469-8.166-22.852-12.267-34.27v-17.672c3.627-19.531,11.277-36.949,26.806-50.078,14.371-12.145,19.921-27.457,19.263-46.227-1.335-38.148,16.965-65.465,52.663-78.762,17.583-6.547,29.491-17.637,35.317-35.5a74.674,74.674,0,0,1,22.532-33.848c17.294-14.945,37.547-20.3,60.041-18.867,15.927,1.027,29.146-4.8,40-16.484a159.735,159.735,0,0,1,13.788-13.2c11.181-9.453,24.834-13.262,38.779-16.266h17.667c11.416,4.1,22.792,8.316,34.26,12.27a47.409,47.409,0,0,0,31.6,0c11.468-3.953,22.844-8.168,34.259-12.27Zm-218,75.785c-41.041-1.578-55.839,8.23-66.644,37.313-8.542,22.992-24.5,38.434-47.347,47.223-7,2.7-14.236,5.785-20.056,10.359-14.314,11.246-18.479,26.934-17.323,44.629,1.641,25.113-7.379,46.016-25.9,62.949-3.251,2.969-6.663,5.906-9.3,9.391-11.243,14.855-14.147,31.2-6.45,48.406,6.476,14.484,12.89,29.129,10.346,45.172a166.875,166.875,0,0,1-10.036,34.957c-8.081,20.414-4.692,40.1,10.974,55.336,3.516,3.422,7.294,6.6,10.561,10.242,14.641,16.324,20.979,35.449,19.933,57.4-1.311,27.516,9.208,44.543,33.58,53.121,26.407,9.293,43.595,26.789,52.874,53.125,8.04,22.816,25,34.535,48.988,33.117,28.876-1.7,51.863,8.211,71,29.719,15.229,17.113,35.7,21.211,56.178,11.207,26.153-12.77,51.407-12.855,77.583-.082,20.6,10.055,41.072,6.055,56.21-10.988,19.311-21.734,42.55-31.629,71.689-29.863,23.461,1.426,40.6-10.527,48.393-32.895,9.287-26.664,26.747-44.23,53.414-53.547,22.733-7.945,34.494-24.98,33.1-49-1.651-28.555,7.877-51.492,29.17-70.508,17.807-15.9,21.768-36,11.427-57.363-12.421-25.66-12.5-50.582-.095-76.27,10.372-21.477,6.532-41.594-11.175-57.406-21.271-18.992-30.982-41.855-29.327-70.43,1.4-24.156-10.171-41.16-32.913-49.133-26.637-9.352-44.187-26.789-53.542-53.441-8.012-22.82-24.982-34.492-48.99-33.109-28.537,1.648-51.478-7.863-70.485-29.18-15.883-17.812-35.652-21.09-57.448-11.633-6.936,3.016-13.964,6.184-21.273,7.895a74.389,74.389,0,0,1-52.107-6.566c-15.646-8.012-31.63-9.34-47.071-.316-6.618,3.859-12.3,9.648-17.687,15.254C-779.239-5423.645-799.117-5415.461-813.067-5415.82Z" transform="translate(1039.709 5491.605)" fill="#f1a31d"/>
    <path id="Path_689" data-name="Path 689" d="M-778.822-4939.4c-.546,29.723,3.133,60.16,11.78,88.6,4.123,13.559,9.407,26.785,14.658,39.977,3.617,9.082,11.527,12.523,19.5,9.371,7.8-3.09,10.854-11.121,7.626-20.32-1.052-3.008-2.357-5.926-3.569-8.867q-31.42-76.348-14.584-157.187A267.442,267.442,0,0,1-437.6-5197.385a281.46,281.46,0,0,1,81.255,27c9.491,4.8,18.346,2,21.935-5.977,3.564-7.937.192-15.707-9.08-20.387-72.7-36.684-148.271-43.973-226.257-20.543C-690.667-5180.975-776.487-5066.455-778.822-4939.4Zm307.568,303.473c5.916-.57,16.939-1.273,27.865-2.719,85.567-11.363,154.045-52.434,203.954-122.254,51.174-71.582,66.156-151.637,47.854-237.77a288.521,288.521,0,0,0-27.99-75.559c-4.548-8.559-12.657-11.469-20.29-7.672-7.292,3.617-9.788,11.543-6.129,20.215,1.808,4.281,4.048,8.379,6.049,12.578,23.566,49.473,31.276,101.48,23.087,155.488-8.583,56.621-32.495,106.227-72.781,147.176C-340.79-4694.455-403.009-4667-476.151-4665.2c-38.565.953-75.458-6.832-110.977-21.75-9.929-4.168-18.462-1.012-21.723,7.113-3.316,8.266.7,15.973,10.738,20.23C-559.207-4643.111-518.625-4635.178-471.254-4635.928ZM-666.145-4732.8a15.55,15.55,0,0,0-15.006-15.016,14.923,14.923,0,0,0-14.861,14.176c-.206,8,7.333,15.508,15.473,15.418A14.774,14.774,0,0,0-666.145-4732.8Zm384.64-385.586a14.645,14.645,0,0,0,14.933-14.008c.261-7.762-6.787-15.168-14.653-15.4A14.734,14.734,0,0,0-296-5133.619,14.878,14.878,0,0,0-281.505-5118.385Z" transform="translate(858.355 5310.251)" fill="#f1a31d"/>
    <path id="Path_690" data-name="Path 690" d="M-189.063-4766.754c20.024,0,39.338.232,58.643-.068,18.168-.277,32.565,5.939,41.52,22.406a38.769,38.769,0,0,1,3.277,29.213c-.98,3.727-.417,5.461,2.916,7.654,25.984,17.072,26.691,50.77,1.8,69.2-1.673,1.236-3.414,4.277-3.062,6.076,4.61,23.539-.829,36.875-21.251,50.2.338,1.447.673,3.059,1.09,4.648,6.721,25.717-10.914,51.307-37.529,51.791-45.613.826-91.271.807-136.871-.379-13.379-.344-26.67-5.66-39.9-9.094-3.515-.92-5.956-1.709-9.059,1.4-6.18,6.18-14.216,8.418-22.857,8.434-20.363.023-40.728.189-61.087-.045-19.9-.23-33.986-14.072-34.054-33.912q-.3-86.865.006-173.727c.071-19.482,14.077-33.436,33.48-33.725,20.849-.307,41.723-.543,62.549.213,6.513.238,12.86,3.951,19.377,5.729,2.638.715,5.984,1.566,8.233.584,25.45-11.131,42.507-29.553,50.406-56.713,4.707-16.193,11.276-31.852,17.158-47.693,4.314-11.625,11.42-14.775,23.113-10.572,37.235,13.389,57.9,53.762,47.154,92.266C-185.447-4777.709-187.2-4772.658-189.063-4766.754ZM-231.3-4841.7c-5.349,14.824-10.578,29.061-15.623,43.354-7.489,21.229-19.921,38.795-38.681,51.379-8.115,5.443-17.13,9.537-25.365,14.816-2.331,1.5-4.757,5.025-4.77,7.633-.279,51.275-.14,102.555-.328,153.832-.016,4.373,1.836,5.826,5.371,7.242a117.607,117.607,0,0,0,44.407,8.77c39.25-.107,78.5-.025,117.751-.033a35.213,35.213,0,0,0,5.874-.205c6.356-1.084,10.113-4.9,10.531-11.373.382-5.922-4.4-11-10.851-11.8a62.643,62.643,0,0,0-7.349-.176c-6.867-.057-13.764.291-20.6-.232a14.622,14.622,0,0,1-13.915-14.475c0-7.5,5.762-13.615,13.873-14.586a49.545,49.545,0,0,1,5.879-.154c12.757-.016,25.513.029,38.269-.02,9.886-.041,15.488-4.455,15.356-11.93-.129-7.432-5.674-11.549-15.692-11.615-4.416-.029-8.832,0-13.248-.01-10.057-.02-20.129.281-30.166-.191a14.58,14.58,0,0,1-14.272-14.141c-.23-7.734,5.775-14.1,14.244-14.988a55.171,55.171,0,0,1,5.883-.115c18.888-.014,37.778.02,56.667-.02,10.037-.02,15.583-4.154,15.725-11.562.148-7.682-5.532-11.963-16.05-11.982-16.926-.029-33.853.01-50.78-.016a101.174,101.174,0,0,1-12.491-.285,14.72,14.72,0,0,1-13.2-14.4c-.005-7.2,5.475-13.33,13.135-14.5a45.376,45.376,0,0,1,6.607-.246c12.756-.02,25.514.111,38.268-.072,8.165-.113,13.146-4.852,13.082-11.814s-5.046-11.354-13.283-11.672c-1.714-.068-3.433-.02-5.151-.02-24.286,0-48.6-.656-72.849.262-13.91.521-23.661-9.561-17.237-24.51a214.907,214.907,0,0,0,10.221-31.4C-207.253-4811.645-214.68-4830.24-231.3-4841.7Zm-114.1,196.293c0-27.98-.142-55.953.111-83.934.055-6.113-1.958-8.168-8.059-8.076q-27.229.457-54.47,0c-6.566-.117-8.417,2.379-8.4,8.658q.261,82.828-.007,165.654c-.022,6.436,2.113,8.629,8.529,8.512,17.661-.316,35.332-.1,53-.111,9.078-.016,9.288-.244,9.292-9.709Q-345.39-4604.9-345.4-4645.406Z" transform="translate(626.66 5064.217)" fill="#f1a31d"/>
    <path id="Path_691" data-name="Path 691" d="M-778.822-4939.4c2.335-127.055,88.155-241.574,209.076-277.895,77.986-23.43,153.554-16.141,226.257,20.543,9.272,4.68,12.644,12.449,9.08,20.387-3.588,7.98-12.443,10.773-21.935,5.977a281.46,281.46,0,0,0-81.255-27,267.442,267.442,0,0,0-305.812,209.559q-16.775,80.736,14.584,157.188c1.212,2.941,2.517,5.859,3.569,8.867,3.228,9.2.17,17.23-7.626,20.32-7.973,3.152-15.884-.289-19.5-9.371-5.251-13.191-10.535-26.418-14.658-39.977C-775.689-4879.24-779.368-4909.678-778.822-4939.4Z" transform="translate(858.355 5310.251)" fill="#f1a31d"/>
    <path id="Path_692" data-name="Path 692" d="M-85.906-4299.994c-47.37.75-87.953-7.186-126.859-23.676-10.042-4.262-14.054-11.969-10.737-20.234,3.261-8.127,11.793-11.285,21.722-7.111,35.52,14.914,72.414,22.7,110.978,21.754,73.142-1.8,135.362-29.254,186.516-81.252,40.285-40.947,64.2-90.553,72.781-147.164,8.188-54.012.479-106.02-23.087-155.49-2-4.2-4.241-8.307-6.048-12.584-3.659-8.666-1.163-16.592,6.128-20.215,7.634-3.789,15.743-.883,20.29,7.674a288.588,288.588,0,0,1,27.991,75.561c18.3,86.129,3.32,166.18-47.854,237.766-49.91,69.82-118.386,110.9-203.955,122.256C-68.967-4301.262-79.991-4300.557-85.906-4299.994Z" transform="translate(473.007 4974.311)" fill="#f1a31d"/>
    <path id="Path_693" data-name="Path 693" d="M-477.083-3630.822a14.769,14.769,0,0,1-14.394,14.574c-8.14.1-15.679-7.418-15.474-15.416a14.922,14.922,0,0,1,14.862-14.174A15.545,15.545,0,0,1-477.083-3630.822Z" transform="translate(669.293 4208.272)" fill="#f1a31d"/>
    <path id="Path_694" data-name="Path 694" d="M820.287-4929.068a14.868,14.868,0,0,1-14.492-15.227,14.73,14.73,0,0,1,14.772-14.172c7.865.23,14.915,7.633,14.653,15.4A14.628,14.628,0,0,1,820.287-4929.068Z" transform="translate(-243.439 5120.924)" fill="#f1a31d"/>
  </g>
</svg>
