<svg xmlns="http://www.w3.org/2000/svg" width="696.338" height="684.863" viewBox="0 0 696.338 684.863">
  <g id="Group_63" data-name="Group 63" transform="translate(6718.771 5387.136)">
    <path id="Path_652" data-name="Path 652" d="M-6516.141-5267.926c3.629,1.594,5.613,2.527,7.645,3.344q143.59,57.475,287.262,114.742a17.937,17.937,0,0,0,12.086-.105q83.93-33.146,167.621-66.867c1.93-.773,3.785-1.734,6.813-3.133-62.125-23.68-123.074-46.914-184.539-70.34,2.734-7.152,5.184-13.559,7.766-20.309l206.973,78.867-29.422,12.012c11.078,4.234,20.867,8.215,30.84,11.664,4.141,1.43,5.633,3.523,5.289,7.844-.391,4.906-.086,9.871-.086,14.492h21.75c0-9.984-.191-19.926.094-29.855.113-4.008-1.105-6.055-4.992-7.359-7.437-2.492-14.691-5.535-23.133-8.773,30.16-12.1,59.164-23.734,89.609-35.953-4.066-1.785-6.445-2.922-8.9-3.9q-142.664-57.088-285.316-114.242c-4.828-1.937-8.852-1.691-13.566.2q-101.648,40.863-203.406,81.449C-6455.332-5292.316-6484.895-5280.449-6516.141-5267.926Zm474.734,74.566c-3.133,1.215-5.215,2.012-7.289,2.84q-80.643,32.2-161.336,64.254a15.969,15.969,0,0,1-10.684-.023c-46.473-18.324-92.828-36.957-139.219-55.492-9.59-3.832-19.211-7.586-29.527-11.652v8.289c0,29.215.184,58.434-.152,87.648a18.693,18.693,0,0,0,5.891,14.379c15.031,15.293,33.105,25.875,52.66,34.074,29.547,12.387,60.621,18.023,92.449,19.793,43.543,2.422,86.445-.93,127.887-15.586,24.141-8.531,46.434-20.355,64.258-39.254,2.313-2.453,4.813-6.043,4.844-9.133C-6041.273-5126.273-6041.406-5159.328-6041.406-5193.359Zm-302.25,164.832c-15.285-10.172-31.316-20.9-47.453-31.469a9.751,9.751,0,0,0-5.125-1.109c-16.992-.047-34-.383-50.969.133-39.2,1.191-71.574,33.984-72.7,73.152-1.266,44.152,32.852,78.859,78,78.883q233.818.129,467.629.027a41.943,41.943,0,0,0,5.434-.164,16.4,16.4,0,0,0,14.4-16.277,16.336,16.336,0,0,0-14.648-16.02,74.626,74.626,0,0,0-8.152-.152q-232.119-.012-464.23-.02c-26.312,0-45.84-18.605-45.855-43.453-.016-24.9,19.477-43.48,45.773-43.52q46.564-.07,93.121-.012Zm305.523,21.746h-400.852c-2.035,0-4.082-.078-6.109.063a21.894,21.894,0,0,0-20.395,19.379,21.389,21.389,0,0,0,15.273,22.887,38.45,38.45,0,0,0,10.707,1.129q193.336.088,386.656.047h7.523C-6042.895-4978-6040.578-4992-6038.133-5006.781Zm83.691,21.441c-5.883-35.223-11.7-70.109-17.367-104.027h-30.422c-5.648,33.84-11.48,68.746-17.375,104.027Zm-5.41-151.844a27.229,27.229,0,0,0-27.062-27.273,27.217,27.217,0,0,0-27.277,27.059,27.238,27.238,0,0,0,27.055,27.285A27.269,27.269,0,0,0-5959.852-5137.184Zm-69.332,77.172c-.434-.816-.863-1.637-1.293-2.449-4.262,1.746-8.82,2.992-12.727,5.328-13.352,7.98-26.461,16.355-39.7,24.523-1.957,1.207-4.1,2.125-7.082,3.648h55.543C-6032.645-5039.559-6030.914-5049.789-6029.184-5060.012Z" transform="translate(-155.056 0.002)" fill="#fff"/>
    <path id="Path_653" data-name="Path 653" d="M-6636.969-2931.658c-4.148-.979-8.316-1.885-12.445-2.941-43.738-11.189-74.18-55.01-68.73-98.9,5.914-47.631,43.906-82.885,90.684-82.936q293.314-.3,586.633-.17c9.207,0,14.727,4.518,18.391,12.3v8.156c-4.062,9.207-11.109,12.377-21.109,12.365q-287.818-.264-575.637-.127c-2.945,0-5.891-.033-8.836.055-38.523,1.15-65.953,38.338-55.7,75.5,7.48,27.084,30.668,44.059,60.461,44.063q289.857.029,579.711-.123c10-.008,17.051,3.152,21.105,12.367v8.158l-12.234,12.234Z" transform="translate(0.005 -1770.615)" fill="#3aa3db"/>
    <path id="Path_654" data-name="Path 654" d="M-6502.691-5267.926c31.242-12.523,60.809-24.391,90.387-36.223q101.713-40.693,203.406-81.449c4.711-1.891,8.738-2.137,13.57-.2q142.594,57.258,285.313,114.242c2.449.977,4.836,2.113,8.891,3.9-30.445,12.219-59.449,23.855-89.6,35.953,8.434,3.238,15.688,6.281,23.125,8.773,3.887,1.3,5.109,3.352,4.992,7.359-.277,9.93-.09,19.871-.09,29.855h-21.758c0-4.621-.293-9.586.094-14.492.34-4.32-1.152-6.414-5.293-7.844-9.973-3.449-19.758-7.43-30.84-11.664,10.047-4.1,18.98-7.75,29.426-12.012-69.562-26.508-137.793-52.5-206.973-78.867-2.582,6.75-5.031,13.156-7.77,20.309,61.465,23.426,122.41,46.66,184.539,70.34-3.031,1.4-4.879,2.359-6.809,3.133q-83.766,33.539-167.621,66.867a17.948,17.948,0,0,1-12.09.105q-143.73-57.111-287.258-114.742C-6497.082-5265.4-6499.066-5266.332-6502.691-5267.926Z" transform="translate(-168.503 0.002)" fill="#3aa3db"/>
    <path id="Path_655" data-name="Path 655" d="M-5579.82-4507.3c0,34.031.133,67.09-.219,100.141-.031,3.086-2.531,6.68-4.844,9.129-17.824,18.9-40.117,30.719-64.258,39.258-41.441,14.648-84.352,18.008-127.887,15.586-31.828-1.77-62.9-7.406-92.449-19.8-19.555-8.2-37.625-18.781-52.66-34.07a18.71,18.71,0,0,1-5.891-14.387c.336-29.211.152-58.43.152-87.641v-8.293c10.316,4.07,19.938,7.82,29.527,11.652,46.391,18.539,92.742,37.168,139.219,55.488a15.922,15.922,0,0,0,10.684.031q80.771-31.881,161.336-64.254C-5585.043-4505.285-5582.953-4506.082-5579.82-4507.3Z" transform="translate(-616.638 -686.059)" fill="#3aa3db"/>
    <path id="Path_656" data-name="Path 656" d="M-6343.656-3874.32h-4.777q-46.559,0-93.121.014c-26.3.043-45.789,18.625-45.773,43.52.016,24.848,19.543,43.449,45.855,43.455q232.113.041,464.23.018a75.618,75.618,0,0,1,8.152.152,16.342,16.342,0,0,1,14.648,16.023,16.4,16.4,0,0,1-14.4,16.277,42.65,42.65,0,0,1-5.434.164q-233.812.006-467.629-.029c-45.145-.025-79.262-34.727-78-78.885,1.125-39.162,33.5-71.963,72.7-73.152,16.973-.516,33.977-.178,50.969-.133a9.826,9.826,0,0,1,5.125,1.109C-6374.973-3895.213-6358.941-3884.49-6343.656-3874.32Z" transform="translate(-155.056 -1154.21)" fill="#3aa3db"/>
    <path id="Path_657" data-name="Path 657" d="M-5845.73-3659.7c-2.445,14.779-4.762,28.775-7.2,43.5h-7.52q-193.324,0-386.652-.045a38.489,38.489,0,0,1-10.715-1.129,21.387,21.387,0,0,1-15.273-22.885,21.907,21.907,0,0,1,20.4-19.383c2.027-.139,4.07-.057,6.109-.059h400.852Z" transform="translate(-347.454 -1347.083)" fill="#3aa3db"/>
    <path id="Path_658" data-name="Path 658" d="M-4182.352-3930.689h-65.164c5.895-35.277,11.727-70.187,17.379-104.023h30.418C-4194.055-4000.791-4188.23-3965.912-4182.352-3930.689Z" transform="translate(-1927.144 -1054.652)" fill="#3aa3db"/>
    <path id="Path_659" data-name="Path 659" d="M-4168.586-4348.473a27.254,27.254,0,0,1-27.281,27.063,27.227,27.227,0,0,1-27.055-27.281,27.2,27.2,0,0,1,27.273-27.055A27.219,27.219,0,0,1-4168.586-4348.473Z" transform="translate(-1946.323 -788.706)" fill="#3aa3db"/>
    <path id="Path_660" data-name="Path 660" d="M-4506.342-3910.066c-1.73,10.227-3.465,20.453-5.25,31.053h-55.547c2.984-1.525,5.125-2.437,7.082-3.646,13.234-8.17,26.34-16.549,39.7-24.523,3.9-2.336,8.461-3.582,12.723-5.332Q-4506.994-3911.288-4506.342-3910.066Z" transform="translate(-1677.895 -1149.944)" fill="#3aa3db"/>
    <path id="Path_661" data-name="Path 661" d="M-5846.273-2869.422v75.818c-2.141.1-4.309.295-6.477.295q-289.143.018-578.281-.008c-30.559-.006-49.66-29.385-36.023-55.445,6.723-12.842,17.715-19.592,32.176-20.6,2.031-.145,4.078-.057,6.117-.057h582.488Z" transform="translate(-192.804 -1963.354)" fill="#3aa3db"/>
  </g>
</svg>
