<svg xmlns="http://www.w3.org/2000/svg" width="679.567" height="657.31" viewBox="0 0 679.567 657.31">
  <g id="Group_48" data-name="Group 48" transform="translate(0)">
    <path id="Path_674" data-name="Path 674" d="M-10547.137-7004.871v-71.6c0-18.945-.164-37.891.1-56.832a15.821,15.821,0,0,0-4.727-12.078q-70.242-74.895-140.211-150.059c-.922-.984-1.766-2.055-3.25-3.781,12.656-10.145,25.164-20.164,37.82-30.293,1.906,1.652,3.5,2.941,4.977,4.324q72.3,67.506,144.672,134.941a12.973,12.973,0,0,1,4.523,10.629c-.187,26.422-.086,52.852,1.352,80.3,4.641-4.824,9.2-9.73,13.922-14.461,30.094-30.141,70.594-30.172,100.719-.051,4.664,4.664,9.07,9.582,14.8,15.664.3-3.758.57-5.637.57-7.516.031-24.875-.086-49.758.148-74.641.023-2.82,1.078-6.488,3.016-8.312q74.074-69.615,148.508-138.867a31.951,31.951,0,0,1,2.563-1.93c12.438,9.945,24.844,19.871,37.57,30.055-1.336,1.672-2.375,3.121-3.57,4.41q-70.043,75.088-139.992,150.281a17.322,17.322,0,0,0-4.219,10.66c-.3,40.4-.187,80.8-.187,121.2v7.953Z" transform="translate(10777.446 7662.181)" fill="#f1a31d"/>
    <path id="Path_675" data-name="Path 675" d="M-10113.926-7673.2h-20.82c-.523,4.547-.562,8.9-1.594,13-2.516,9.91-9.031,16.2-18.922,18.707-9.687,2.457-18.2-.215-24.891-7.445-5.109-5.508-9.531-11.652-14.336-17.457a80.1,80.1,0,0,0-107.844-14.773c-12.469,8.668-18.75,20.824-19.187,35.969-.148,4.781-.023,9.574-.023,14.887-4.547.9-9.578,1.9-14.586,2.891-13.8-34.187-8.32-73.16,17.211-101.488,19.188-21.293,43.344-32.176,72.055-32.215,20.289-.039,40.828-1.391,60.82,1.25,58.4,7.7,94.414,62.324,80.43,119.789-1.016,4.184-2.2,8.332-3.352,12.727-5.367-.98-10.43-1.9-16.781-3.059,1.406-3.3,2.281-6.5,3.977-9.16C-10115.1-7650.035-10112.559-7660.043-10113.926-7673.2Z" transform="translate(10562.815 7925.796)" fill="#f1a31d"/>
    <path id="Path_676" data-name="Path 676" d="M-10078.676-7482.621c-1.953,22.191-2.523,43.715-5.984,64.766-5.7,34.8-38.82,59.309-74.453,57.031-34.578-2.2-63.641-30.816-66.242-65.316q-2.742-36.164-5.3-72.344c-1.344-18.789,3.586-26.5,21.266-33.352,25.07-9.723,50.648-2.926,67.617,17.992,4.008,4.961,7.852,10.082,12.031,14.9,12.352,14.207,27.789,20.059,46.492,16.7C-10082.137-7482.441-10081-7482.441-10078.676-7482.621Zm-108.031,45.523c-1.867,17.113,1.633,31.328,17.313,39.656,12.18,6.477,24.3,5.258,35.219-3.1,12.2-9.34,14.211-22.293,12.32-36.555Z" transform="translate(10494.08 7788.3)" fill="#f1a31d"/>
    <path id="Path_677" data-name="Path 677" d="M-10435.484-8047.984c-20.336-16.969-40.18-33.059-59.484-49.762-19.1-16.527-22.7-42.715-9.422-63.039a49.705,49.705,0,0,1,62.828-17.395c4.313,2.066,7.453,2.273,11.859.133a49.642,49.642,0,0,1,62.9,17.055c13.391,20.2,9.922,46.57-9.1,63.082C-10395.328-8081.035-10415.32-8064.828-10435.484-8047.984Z" transform="translate(10665.83 8183.021)" fill="#f1a31d"/>
    <path id="Path_678" data-name="Path 678" d="M-9873.625-8048.375q-24.551-20.432-49.25-41c-3.332-2.773-6.711-5.48-9.934-8.367-18.8-16.855-22.59-42.812-9.285-63.117a49.681,49.681,0,0,1,62.855-17.281c4.336,2.074,7.488,2.16,11.867.043a49.635,49.635,0,0,1,62.863,17.164c13.363,20.215,9.852,46.551-9.187,63.063-18.949,16.441-38.461,32.215-57.734,48.266A15.758,15.758,0,0,1-9873.625-8048.375Z" transform="translate(10322.675 8183.027)" fill="#f1a31d"/>
    <path id="Path_679" data-name="Path 679" d="M-10829.371-7766.68c-21.406-18.105-43.133-35.168-63.266-53.918-16.82-15.66-17.7-42.145-4.25-60.809a49.674,49.674,0,0,1,61.7-15.492c4.375,2.109,7.539,2.047,11.883-.039a49.634,49.634,0,0,1,62.828,17.277c13.328,20.238,9.781,46.531-9.281,63.059C-10789.191-7799.762-10809.176-7783.547-10829.371-7766.68Z" transform="translate(10906.196 8011.428)" fill="#f1a31d"/>
    <path id="Path_680" data-name="Path 680" d="M-9480.094-7767.02c-20.047-16.73-39.9-32.816-59.2-49.523-19.09-16.527-22.7-42.707-9.422-63.039a49.686,49.686,0,0,1,62.82-17.379c4.309,2.055,7.453,2.266,11.879.117a49.637,49.637,0,0,1,62.895,17.055c13.371,20.316,9.918,46.559-9.105,63.086-18.758,16.3-38.1,31.93-57.176,47.848C-9478.078-7768.289-9478.867-7767.852-9480.094-7767.02Z" transform="translate(10082.634 8011.418)" fill="#f1a31d"/>
    <path id="Path_681" data-name="Path 681" d="M-10139.32-7016.227c3.492-7.047,6.355-13.535,9.938-19.605.953-1.621,4.41-3.191,6.168-2.711a94.767,94.767,0,0,0,49.992.016c1.7-.449,5.063,1.246,6.02,2.9,3.555,6.074,6.418,12.547,9.824,19.426-12.8,10.266-25.52,20.574-38.445,30.641-1.082.844-4.059.719-5.187-.176C-10113.777-6995.664-10126.344-7005.836-10139.32-7016.227Z" transform="translate(10438.214 7484.666)" fill="#f1a31d"/>
    <path id="Path_682" data-name="Path 682" d="M-10809.543-7369.262c-11.078-2.363-21.4-4.145-31.469-6.84-6-1.609-9.227-8.211-8.18-14.137a12.96,12.96,0,0,1,12.313-10.867c6.813-.32,13.664.2,20.469-.258a13.742,13.742,0,0,0,7.617-3.184c4.813-4.16,8.945-9.078,13.672-13.348,10.891-9.895,27.1-4.855,30.273,9.5.406,1.816-.844,4.863-2.359,6.113-12.445,10.281-25.125,20.309-37.789,30.348A34.007,34.007,0,0,1-10809.543-7369.262Z" transform="translate(10871.524 7719.248)" fill="#f1a31d"/>
    <path id="Path_683" data-name="Path 683" d="M-9418.07-7426.379c4.246,2.367,9.8,3.738,12.5,7.273,10.063,13.18,22.527,18.313,38.98,16.086,8.1-1.1,13.656,4.242,14.59,11.3.938,7.129-3.625,12.84-12.078,14.73-8,1.789-16.02,3.688-24.121,4.816a12.72,12.72,0,0,1-8.551-2.367c-12.324-9.418-24.223-19.4-36.555-28.82-3.934-3.012-4.059-5.824-2.27-9.891C-9432.32-7420.605-9426.23-7425.105-9418.07-7426.379Z" transform="translate(10009.436 7721.287)" fill="#f1a31d"/>
    <path id="Path_684" data-name="Path 684" d="M-10316.023-7323c-16.2,1.25-27.3-7.82-27.328-21.461-.016-12.863,10.453-22.406,24.2-21.469C-10318.125-7351.828-10317.086-7337.637-10316.023-7323Z" transform="translate(10562.723 7684.436)" fill="#f1a31d"/>
    <path id="Path_685" data-name="Path 685" d="M-9792.008-7365.6c12.953-1.422,23.77,7.906,24.234,20.41.5,13.934-10.414,23.324-27.262,22.488C-9794.016-7337.039-9793-7351.367-9792.008-7365.6Z" transform="translate(10228.116 7684.289)" fill="#f1a31d"/>
    <path id="Path_686" data-name="Path 686" d="M-10145.984-6893.941v-20.039c5.785,4.559,10.816,8.516,16.664,13.133C-10135.281-6898.371-10140.465-6896.23-10145.984-6893.941Z" transform="translate(10442.283 7408.6)" fill="#f1a31d"/>
    <path id="Path_687" data-name="Path 687" d="M-9948.605-6893.867c-5.477-2.277-10.559-4.383-16.406-6.82,5.559-4.422,10.59-8.43,16.406-13.066Z" transform="translate(10331.844 7408.464)" fill="#f1a31d"/>
  </g>
</svg>
