<svg xmlns="http://www.w3.org/2000/svg" width="576.997" height="576.84" viewBox="0 0 576.997 576.84">
  <g id="Group_73" data-name="Group 73" transform="translate(12864.593 1102.112)">
    <path id="Path_1631" data-name="Path 1631" d="M-12194.437-1090.979c-5.648,18.235-11.392,36.439-16.906,54.713q-26.159,86.684-52.188,173.411c-2.514,8.35-4.339,9.651-13.3,9.651-49.025,0-98.038.091-147.059-.127-5.2-.023-8.578,1.586-12.017,5.351-21.517,23.586-43.266,46.956-64.948,70.4-1.525,1.655-3.018,3.351-4.605,4.945-6.515,6.526-13.467,4.767-15.918-4.21-6.794-24.962-13.446-49.966-20.157-74.953-3.83-14.27-7.665-28.539-11.574-43.1h-6.99q-80,0-160.01-.011c-2.063,0-4.61.57-6.068-.406-2.6-1.727-5.932-4.216-6.349-6.8-.4-2.558,2.089-5.871,3.956-8.376.958-1.294,3.288-1.626,5.047-2.267q256.22-93.54,512.453-187.056c9.824-3.586,11.287-3.3,16.631,3.2Zm-84.542,220.7q29.892-99.339,59.741-198.548l-.971-.463c-83.358,66.044-166.716,132.09-251.183,199.011Zm-12.4-164.218-.713-.719q-71.225,39.218-142.462,78.436c-7.979,4.394-12.809,3.963-15.547-1.355-2.585-5.016-.292-9.2,7.373-13.42q63.083-34.769,126.169-69.538c1.737-.959,3.451-1.971,5.177-2.958-.142-.328-.292-.655-.442-.983-120.767,44.085-241.542,88.17-363.771,132.784,2.238.3,2.78.431,3.317.432q60.015.017,120.013-.078a14.834,14.834,0,0,0,6.773-2.118c21.786-12.165,43.49-24.466,65.239-36.69a23.824,23.824,0,0,1,6.106-2.762,7.689,7.689,0,0,1,9.315,4.468c1.784,3.689.921,7.019-2.051,9.658a29.666,29.666,0,0,1-5.164,3.371c-20.1,11.329-40.164,22.727-60.388,33.838-3.455,1.9-4.31,3.628-3.26,7.42,6.819,24.76,13.405,49.585,20.095,74.382.342,1.253.941,2.435,1.851,4.728,3.139-15.6,5.743-30,9.107-44.224a20.276,20.276,0,0,1,6.427-10.522q79.009-63.088,158.376-125.724Q-12315.594-1015.275-12291.375-1034.494Zm-206.688,227.025c.417.252.838.5,1.259.755,14.051-15.172,28.1-30.344,42.693-46.091h-34.924C-12492.087-837.47-12495.079-822.471-12498.063-807.47Z" transform="translate(-93.158 0)" fill="#fff"/>
    <path id="Path_1632" data-name="Path 1632" d="M-12858.937,768.326c-7.219-5.892-7.473-9.752-1.059-16.61,5.11-5.461,10.212-10.938,15.4-16.316,4.747-4.91,9.328-5.512,13.246-1.939s3.751,8.492-.829,13.308c-6.94,7.288-14.08,14.38-21.128,21.556Z" transform="translate(-0.002 -1293.597)" fill="#fff"/>
    <path id="Path_1633" data-name="Path 1633" d="M-12745.63,133.089c-11.808,3.318-23.7,5.653-36.024,3.395-24.9-4.564-43.369-25.2-44.479-49.75a54,54,0,0,1,39.969-54.6c32.311-8.822,65.668,15.707,66.919,49.253.154,4.069.024,8.149.024,13.295,2.151-1.976,3.655-3.246,5.035-4.629q32.681-32.652,65.335-65.32a32.208,32.208,0,0,1,4.619-4.095c3.609-2.43,7.277-1.971,10.282.971,3.227,3.148,3.551,6.931.972,10.728a23.488,23.488,0,0,1-2.984,3.361c-25.355,25.366-50.435,51.022-76.265,75.888-7.523,7.239-12.7,14.672-15.714,24.787-7.478,25.085-21.586,46.469-39.955,65.046-5.686,5.74-11.333,11.516-17.147,17.11-4.314,4.151-8.937,4.359-12.534.941-3.73-3.549-3.413-8.3.742-12.966,12.088-13.569,24.938-26.558,35.917-40.974,7.114-9.341,11.462-20.786,17.052-31.287Q-12744.754,133.664-12745.63,133.089Zm9.7-43.913c-.233-3.647-.2-7.237-.729-10.74a36.543,36.543,0,0,0-36.987-31.182c-17.944.415-32.815,14.079-35.383,32.513-2.389,17.117,9.407,34.791,26.775,39.267,13.513,3.483,26.363.251,38.822-5.254,3.334-1.474,5.431-3.219,5.589-7.329C-12737.623,100.662-12736.609,94.9-12735.931,89.176Z" transform="translate(-27.1 -791.122)" fill="#fff"/>
    <path id="Path_1634" data-name="Path 1634" d="M-11721.116,29.524c-34.666,17.287-58.282.388-65.936-18.921-8.678-21.908,2.764-46.562,25.009-54.539,20.549-7.368,47.325,2.142,55.273,31.75,1.376-1.954,2.563-3.471,3.568-5.1,10.7-17.413,21.332-34.863,32.077-52.247,1.251-2.031,2.727-4.7,4.677-5.342,2.7-.891,6.823-1.276,8.732.2,2.126,1.648,3.051,5.567,3.351,8.609.18,1.891-1.6,4.09-2.779,5.981q-22.689,36.553-45.412,73.081a9.738,9.738,0,0,0-1.426,4.664c-.654,24.453-8.094,46.724-21.3,67.192-2.13,3.307-4.043,6.754-6.169,10.068-3.226,5.026-8.219,6.736-12.312,4.329-4.526-2.662-5.206-7.493-2.034-13.26,5.865-10.654,12.2-21.1,17.273-32.123C-11725.218,46.673-11723.8,38.615-11721.116,29.524Zm-25.768-9.358c8.107-.282,16.436-4.245,23.834-10.333A4.913,4.913,0,0,0-11721.4,6.1c-.913-6.285-1.547-12.71-3.414-18.736-3.718-12.024-16.264-18.848-28.451-16.2-12.863,2.8-20.933,14.153-19.507,27.452C-11771.492,10.583-11760.984,19.921-11746.884,20.166Z" transform="translate(-758.277 -724.275)" fill="#fff"/>
    <path id="Path_1635" data-name="Path 1635" d="M-12131.622,370.887c-1.367,3.007-1.937,5.037-3.084,6.67-10.333,14.762-20.657,29.532-31.215,44.129-4.765,6.582-12.726,6.174-15.113-.671-.759-2.185-.692-5.594.541-7.391,10.8-15.8,21.879-31.412,33.062-46.944,2.251-3.117,5.944-4.638,9.453-2.473C-12135.415,365.795-12133.651,368.684-12131.622,370.887Z" transform="translate(-481.981 -1033.941)" fill="#fff"/>
  </g>
</svg>
