<svg xmlns="http://www.w3.org/2000/svg" width="534.436" height="618.692" viewBox="0 0 534.436 618.692">
  <g id="Group_25" data-name="Group 25" transform="translate(-0.007 0.001)">
    <path id="Path_103" data-name="Path 103" d="M114.89,420.551c-7.829-3.745-10.411-10.024-10.3-18.563.355-24.341.129-48.683.129-73.008v-6.36H301.131c.1,2.115.307,4.245.307,6.36.016,24.341-.194,48.683.129,73.008.113,8.507-2.389,14.834-10.282,18.547Q203.079,420.559,114.89,420.551Z" transform="translate(64.229 198.14)" fill="#3aa3db"/>
    <path id="Path_104" data-name="Path 104" d="M199.176,70.487c.1,1.889.274,3.761.274,5.65q.024,107.212.113,214.441c.016,4.665-1.356,6.909-5.6,9.088-17.449,8.894-25.94,28.425-21.242,47.424,4.665,18.886,21.9,31.9,41.92,31.654a42.021,42.021,0,0,0,17.949-79.578c-3.18-1.582-4.923-3-4.923-6.989q.194-109.028.113-218.057a6.565,6.565,0,0,1,1.162-3.939c.936,2.05,1.921,4.068,2.792,6.15q52.9,125.589,105.889,251.163c3.5,8.281,2.663,14.689-3.5,21.371a194.744,194.744,0,0,0-48.328,95.042c-.307,1.55-.775,3.051-1.227,4.778H143.294c-3.648-12.171-6.683-24.438-11.009-36.238a186.551,186.551,0,0,0-39.353-63.775c-6.037-6.441-6.892-12.8-3.487-20.855q53.34-126.074,106.341-252.277c.743-1.759,1.63-3.454,2.454-5.181A9.308,9.308,0,0,1,199.176,70.487Z" transform="translate(53.709 43.102)" fill="#3aa3db"/>
    <path id="Path_105" data-name="Path 105" d="M225.106,27.6c0-4.31-.113-8.49.016-12.655.274-9.023,5.827-14.77,14.8-14.834Q267.4-.1,294.886.114c8.668.081,14.253,5.746,14.608,14.414.178,4.2.032,8.41.032,13.543h6.7q65.228,0,130.472.065c3.987.016,6.263-.775,8.248-4.859,8.668-17.756,28.409-26.585,47.634-21.936a42.2,42.2,0,0,1,.161,81.789,41.858,41.858,0,0,1-47.763-21.759c-1.921-3.842-3.939-5.214-8.135-5.149-15.9.226-31.815.081-47.714.1-1.743,0-3.487.178-6.763.371,3.6,2.647,6.085,4.471,8.555,6.311C437.8,90.652,463.4,127.213,481.967,168.68c9.314,20.823,16.158,42.791,23.421,64.486,3.309,9.911-1.146,17.8-9.314,19.6-9.2,2-15.722-3.035-18.418-13.591-11.719-45.778-30.847-88-61.564-124.339-25.778-30.475-57.48-51.282-97.657-57.448-2.712-.42-5.488-.517-8.894-.823,0,4.5.081,8.49-.016,12.461C309.3,78.707,303.731,84.373,294,84.437q-26.876.194-53.751-.016c-9.362-.081-14.883-5.811-15.125-15.189-.1-3.987-.016-7.974-.016-12.526-13.252.258-25.5,3.067-37.513,6.925-39.805,12.752-68.941,38.933-91.151,73.444-20.064,31.153-32.816,65.26-39.563,101.644-1.776,9.556-6.7,14.366-14.931,14.35a13.606,13.606,0,0,1-13.559-12.122A30.565,30.565,0,0,1,29.26,232C40.527,178.543,61.172,129.489,98.669,88.892c10.8-11.7,23.631-21.533,35.915-32.574H123.22c-11.88,0-23.76.145-35.641-.081-3.922-.081-5.924,1.081-7.764,4.762A41.725,41.725,0,0,1,28.243,82C8.744,75.156-3.281,54.3.8,34.431,5.161,13.269,23.465-1.274,44.821.211c16.093,1.114,27.86,9.281,35.463,23.631.985,1.84,3.567,4.035,5.424,4.035,45.5.21,91.006.161,136.509.145A23.166,23.166,0,0,0,225.106,27.6Z" transform="translate(0)" fill="#3aa3db"/>
    <path id="Path_106" data-name="Path 106" d="M184.981,240.7a14.036,14.036,0,1,1-28.07-.371,14.037,14.037,0,0,1,28.07.371Z" transform="translate(96.362 139.178)" fill="#3aa3db"/>
  </g>
</svg>
