<svg xmlns="http://www.w3.org/2000/svg" width="751.915" height="709.91" viewBox="0 0 751.915 709.91">
  <path id="Path_1611" data-name="Path 1611" d="M878.264,566.761c-7.455-3.982-14.781-8.194-22.266-12.118q-11.114-5.817-22.464-11.157c-8.126-3.821-16.347-7.433-24.627-10.9-7.686-3.219-15.557-6.036-23.427-8.769-4.4-1.528-8.807-3.127-13.272-4.443-2.236-.657-4.5-1.251-6.744-1.862q-1.69-.46-3.382-.909a33.52,33.52,0,0,0-3.951-.953c-4.077-.738-8.188-1.582-12.314-1.924l-.562-.046c.206.016-.008-.013-.638-.089-.141-.025-.358-.063-.413-.071l-.668-.117c-1.023-.176-2.049-.342-3.069-.524a57.8,57.8,0,0,0-6.438-.518,1.557,1.557,0,0,0-.779,2.88q1.625.843,3.238,1.7c1.2.632,2.4,1.17,3.65,1.691.293.122.586.247.879.369l.375.157.288.122.084.035.364.155c.163.068.32.144.48.217a2.807,2.807,0,0,0,.51.231c.448.184.529.22.242.1l-.019.011.1.054c.149.089.309.168.458.25l.692.377c.578.32,1.164.6,1.767.874q3.3,1.518,6.573,3.072c1.466.7,2.926,1.368,4.438,1.96,1.137.442,2.269.89,3.4,1.341q3.538,1.409,7.057,2.869c1.913.863,3.941,1.536,5.892,2.294q2.646,1.03,5.281,2.079,4.885,1.95,9.733,3.99c5.249,2.228,10.457,4.551,15.684,6.829q8.276,3.6,16.436,7.464,15.515,7.336,30.573,15.584c-45.593-2.755-91.327.19-136.453,7.165a732.571,732.571,0,0,0-139,35.766,763.678,763.678,0,0,0-131.03,62.42A741.235,741.235,0,0,0,329.312,760.1,684.478,684.478,0,0,0,241,856.972c.079-.364.149-.728.231-1.088q3.147-14.2,5.618-28.541c1.71-9.917,3.222-19.88,4.4-29.876q1.694-14.416,2.7-28.9c.337-4.8.467-9.613.581-14.425.057-2.4.041-4.812.019-7.219q-.012-1.84-.041-3.683c-.008-.567,0-1.135-.019-1.7a6.325,6.325,0,0,0-.076-1.042c-.011-.266-.041-.537-.06-.8-.03-.453-.052-.9-.111-1.346l-.068-.494-.375-.888c0,.016.247.657.1.263-.214-.548-.415-1.1-.622-1.653a2.739,2.739,0,0,0-2.236-1.924,2.642,2.642,0,0,0-2.679,1.283c-.241.53-.461,1.078-.73,1.6a1.351,1.351,0,0,1-.247.434,3.679,3.679,0,0,0-.508,1.875c.157-.977.016-.108-.016.117-.236,1.615-.434,3.219-.605,4.844q-.419,4.039-.9,8.072l.166-1.224c-.385,2.559-.564,5.159-.844,7.735q-.366,3.395-.771,6.788c.06-.456.122-.909.182-1.365-.6,4.15-.9,8.357-1.379,12.523q-.627,5.41-1.349,10.81c-1.65,12.153-3.577,24.28-5.868,36.33-2.326,12.24-4.858,24.494-8.294,36.474q-1.47,5.113-3.023,10.2c-1.037,3.4-2.323,6.722-3.555,10.052-.931,2.519.166,5.683,1.984,7.5a7.748,7.748,0,0,0,7.5,1.981c3.384-.947,6.685-2.239,10.023-3.352s6.7-2.19,10.074-3.224c6.744-2.068,13.546-3.957,20.35-5.811q5.105-1.392,10.243-2.66c3.422-.847,6.877-1.566,10.3-2.427,6.78-1.713,13.595-3.238,20.41-4.8,3.827-.879,7.659-1.707,11.521-2.413,3.906-.716,7.838-1.27,11.738-1.989l-1.506.2c4.057-.535,8.088-1.294,12.137-1.891a4.935,4.935,0,0,0,2.974-2.288,5.138,5.138,0,0,0,.589-3.173,4.956,4.956,0,0,0-4.888-4.315c-4.9.09-9.795.247-14.686.589s-9.754.8-14.629,1.224c-3.289.282-6.6.545-9.86,1.026l1.884-.252c-3.227.318-6.443.833-9.651,1.3q-3.945.57-7.879,1.21c-5.268.861-10.484,2.079-15.679,3.306-10.406,2.459-20.648,5.412-30.791,8.791-.347.114-.692.236-1.037.35,10.373-13.45,21-26.673,32.286-39.418,15.644-17.674,32.218-34.585,49.458-50.7a738.49,738.49,0,0,1,112.887-86.474,748.29,748.29,0,0,1,264.449-102.21c46.765-8.373,94.044-11.423,141.5-11.236,1.132.006,2.264.024,3.4.035q-7.043,3.868-13.975,7.925c-6.269,3.669-12.59,7.35-18.624,11.4q-9.083,6.094-17.932,12.52c-3.724,2.7-7.3,5.618-10.872,8.514-1.593,1.295-3.173,2.6-4.714,3.954-.735.646-1.479,1.286-2.188,1.962a14.354,14.354,0,0,0-2.141,2.8c-1.248,1.072-2.478,2.166-3.707,3.257-1.362,1.2-2.668,2.54-4.1,3.664A5.036,5.036,0,0,0,766,638.62a5.031,5.031,0,0,0,5.035,5.034l1.338-.179a5.067,5.067,0,0,0,1.761-.89c1.4-.857,2.736-1.856,4.1-2.771,1.322-.885,2.654-1.756,3.979-2.641.5-.155,1.007-.318,1.5-.486a18.646,18.646,0,0,0,3.759-2.019c1.558-.969,3.1-1.946,4.644-2.948,3-1.949,6.039-3.854,9.065-5.767s5.99-3.962,9.008-5.906q4.641-2.992,9.339-5.9c6.155-3.8,12.235-7.719,18.439-11.442s12.476-7.331,18.811-10.821c3.545-1.951,7.135-3.81,10.685-5.743,3.626-1.97,7.184-4.066,10.807-6.044C883.252,577.379,883.331,569.467,878.264,566.761Zm-133.169-53.1h0C744.864,513.642,744.856,513.642,745.095,513.661Z" transform="matrix(-0.777, -0.629, 0.629, -0.777, 363.035, 1246.709)" fill="#f1a31d"/>
</svg>
