<svg xmlns="http://www.w3.org/2000/svg" width="759.06" height="433.128" viewBox="0 0 759.06 433.128">
  <path id="Path_1611" data-name="Path 1611" d="M975.014,574.761c-8.552-4.567-16.954-9.4-25.54-13.9q-12.748-6.673-25.767-12.8c-9.321-4.383-18.75-8.526-28.248-12.508-8.816-3.692-17.844-6.924-26.872-10.059-5.043-1.753-10.1-3.586-15.223-5.1-2.565-.753-5.158-1.435-7.736-2.136q-1.938-.527-3.879-1.043a38.49,38.49,0,0,0-4.532-1.093c-4.676-.846-9.392-1.815-14.124-2.207l-.644-.053c.237.019-.009-.015-.732-.1-.162-.028-.411-.072-.473-.081l-.766-.134c-1.174-.2-2.35-.392-3.521-.6a66.324,66.324,0,0,0-7.384-.595,1.786,1.786,0,0,0-.893,3.3q1.863.967,3.714,1.946c1.376.725,2.755,1.342,4.187,1.94.336.14.672.283,1.009.423l.43.18.33.14.1.041.417.177c.187.078.367.165.551.249a3.227,3.227,0,0,0,.585.265c.514.211.607.252.277.118l-.022.013.109.062c.171.1.355.193.526.287l.794.433c.663.367,1.336.688,2.027,1q3.782,1.742,7.54,3.524c1.681.8,3.356,1.569,5.09,2.248q1.956.761,3.9,1.538,4.058,1.616,8.094,3.291c2.195.99,4.52,1.762,6.759,2.631q3.035,1.181,6.058,2.384,5.6,2.237,11.164,4.576c6.021,2.556,11.995,5.22,17.991,7.833q9.493,4.133,18.853,8.561,17.8,8.415,35.069,17.875c-52.3-3.16-104.756.218-156.517,8.219a840.312,840.312,0,0,0-159.443,41.025,875.989,875.989,0,0,0-150.3,71.6,850.208,850.208,0,0,0-132.627,98.293,785.1,785.1,0,0,0-101.3,111.116c.09-.417.171-.834.265-1.248q3.61-16.288,6.444-32.738c1.961-11.375,3.7-22.8,5.043-34.269q1.942-16.535,3.1-33.145c.386-5.5.536-11.026.666-16.546.065-2.758.047-5.52.022-8.281q-.014-2.111-.047-4.224c-.009-.651,0-1.3-.022-1.952a7.263,7.263,0,0,0-.087-1.2c-.012-.3-.047-.616-.068-.915-.034-.52-.059-1.027-.128-1.544l-.078-.567-.43-1.018c0,.019.283.753.109.3-.246-.629-.476-1.264-.713-1.9a3.142,3.142,0,0,0-2.565-2.207,3.031,3.031,0,0,0-3.073,1.472c-.277.607-.529,1.236-.837,1.831a1.554,1.554,0,0,1-.283.5,4.219,4.219,0,0,0-.582,2.151c.181-1.121.019-.124-.019.134-.271,1.852-.5,3.692-.694,5.557q-.481,4.633-1.027,9.259l.19-1.4c-.442,2.936-.647,5.918-.968,8.872q-.42,3.894-.884,7.786c.069-.523.14-1.043.209-1.566-.688,4.76-1.03,9.586-1.581,14.364q-.719,6.206-1.547,12.4c-1.893,13.94-4.1,27.85-6.73,41.672-2.668,14.04-5.572,28.1-9.514,41.837q-1.686,5.865-3.468,11.7c-1.189,3.895-2.665,7.711-4.078,11.531-1.068,2.889.19,6.519,2.276,8.6a8.888,8.888,0,0,0,8.6,2.273c3.882-1.086,7.667-2.568,11.5-3.845s7.689-2.512,11.556-3.7c7.736-2.372,15.537-4.539,23.342-6.665q5.856-1.6,11.749-3.051c3.926-.972,7.889-1.8,11.811-2.783,7.776-1.964,15.594-3.714,23.411-5.51,4.389-1.009,8.785-1.958,13.215-2.768,4.48-.822,8.991-1.457,13.464-2.282-.576.078-1.152.153-1.728.23,4.654-.614,9.277-1.485,13.922-2.17A5.66,5.66,0,0,0,367.195,910a5.893,5.893,0,0,0,.676-3.639,5.685,5.685,0,0,0-5.607-4.95c-5.619.1-11.235.283-16.845.676s-11.188.922-16.78,1.4c-3.773.324-7.565.625-11.31,1.177l2.161-.289c-3.7.364-7.39.956-11.07,1.488q-4.525.654-9.037,1.388c-6.042.987-12.026,2.385-17.984,3.792-11.936,2.821-23.684,6.208-35.318,10.083-.4.131-.794.271-1.189.4,11.9-15.428,24.092-30.6,37.033-45.215,17.944-20.272,36.956-39.67,56.73-58.156A847.078,847.078,0,0,1,468.14,718.97,858.32,858.32,0,0,1,771.474,601.73c53.642-9.6,107.872-13.1,162.311-12.888,1.3.007,2.6.028,3.9.041q-8.078,4.436-16.029,9.091c-7.191,4.209-14.442,8.43-21.362,13.075q-10.418,6.99-20.568,14.361c-4.271,3.1-8.371,6.444-12.471,9.766-1.827,1.485-3.639,2.979-5.407,4.536-.844.74-1.7,1.476-2.509,2.251a16.457,16.457,0,0,0-2.456,3.206c-1.432,1.23-2.842,2.484-4.252,3.736-1.563,1.382-3.06,2.914-4.7,4.2a5.776,5.776,0,0,0-1.69,4.081,5.771,5.771,0,0,0,5.775,5.775l1.535-.205a5.813,5.813,0,0,0,2.02-1.021c1.606-.984,3.138-2.129,4.7-3.178,1.516-1.015,3.045-2.014,4.564-3.029.579-.177,1.155-.365,1.721-.557a21.384,21.384,0,0,0,4.312-2.316c1.787-1.111,3.561-2.232,5.327-3.381,3.446-2.235,6.927-4.421,10.4-6.615s6.871-4.545,10.332-6.774q5.323-3.432,10.712-6.762c7.061-4.361,14.034-8.854,21.15-13.125s14.311-8.408,21.577-12.412c4.066-2.238,8.184-4.371,12.256-6.587,4.159-2.26,8.24-4.664,12.4-6.933C980.736,586.94,980.827,577.865,975.014,574.761Zm-152.75-60.907h0C822,513.832,821.99,513.832,822.264,513.854Z" transform="translate(-220.279 -512.353)" fill="#f1a31d"/>
</svg>
