<svg xmlns="http://www.w3.org/2000/svg" xmlns:xlink="http://www.w3.org/1999/xlink" width="741.247" height="647.603" viewBox="0 0 741.247 647.603">
  <defs>
    <clipPath id="clip-path">
      <path id="Path_1739" data-name="Path 1739" d="M383.366,313.24l46.577,101.651-29.3,8.262L366.09,380.137Z" transform="translate(-366.09 -313.24)" fill="#f1a31d" stroke="#263238" stroke-linecap="round" stroke-linejoin="round" stroke-width="1"/>
    </clipPath>
    <clipPath id="clip-path-2">
      <path id="Path_1749" data-name="Path 1749" d="M345.419,296.31,284.76,324.256,317.1,455.493,306.8,510.7h115.08l-11.389-59.99,27.93-126.085-63.6-26.107Z" transform="translate(-284.76 -296.31)" fill="#f1a31d" stroke="#263238" stroke-linecap="round" stroke-linejoin="round" stroke-width="1"/>
    </clipPath>
    <clipPath id="clip-path-3">
      <path id="Path_1756" data-name="Path 1756" d="M303.972,313.02,256.19,416.494l30.505,6.439,34.553-43.015Z" transform="translate(-256.19 -313.02)" fill="#f1a31d" stroke="#263238" stroke-linecap="round" stroke-linejoin="round" stroke-width="1"/>
    </clipPath>
    <clipPath id="clip-path-4">
      <path id="Path_1761" data-name="Path 1761" d="M289.233,369.51l60.291,68.754-11.707,13.229-75.979-60.509s-10.419-5.017-4.164-15.219" transform="translate(-255.674 -369.51)" fill="#f1a31d" stroke="#263238" stroke-linecap="round" stroke-linejoin="round" stroke-width="1"/>
    </clipPath>
    <clipPath id="clip-path-5">
      <path id="Path_1772" data-name="Path 1772" d="M391.749,370.83,371.68,439.116,386.2,449.251l32.8-52.715s13.48-15.219,5.017-23.782" transform="translate(-371.68 -370.83)" fill="#f1a31d" stroke="#263238" stroke-linecap="round" stroke-linejoin="round" stroke-width="1"/>
    </clipPath>
    <clipPath id="clip-path-6">
      <path id="Path_1792" data-name="Path 1792" d="M370.295,247.325s-33.583,31.007-42.948,53.6-.97,46.193,4.2,52.983,8.362,7.743,8.362,7.743-17.761,6.79-29.385-10.971-8.73-37.8-5.168-51.678,2.576-54.588,10.653-68.152,19.7-23.581,39.085-21.324,29.7,12.276,35.84,24.869,3.228,33.917,5.168,43.283,10.336,37.463,12.276,54.254-20.956,28.749-24.568,30.371a21.49,21.49,0,0,1-7.743,1.672s7.743-38.75,9.366-61.044,1.723-35.539,1.723-35.539S371.917,248.3,370.295,247.325Z" transform="translate(-302.21 -209.209)" fill="#263238" stroke="#263238" stroke-linecap="round" stroke-linejoin="round" stroke-width="1"/>
    </clipPath>
  </defs>
  <g id="Call_center-bro" data-name="Call center-bro" transform="translate(-27.257 -59.724)">
    <g id="freepik--background-simple--inject-71" transform="translate(31.492 59.724)">
      <path id="Path_1730" data-name="Path 1730" d="M187.5,687.885s87.218,45.34,186.895-2.458S506.521,544.942,558.166,475.4c27.094-36.442,71.413-56.746,105.23-87.385,108.106-97.988,69.072-261.8-29.8-306.758-85.646-38.918-184.57-24.97-307.143,40.908S115.555,230.573,51.2,361.86,79.063,624.349,187.5,687.885Z" transform="translate(-29.935 -59.724)" fill="#3aa3db"/>
    </g>
    <g id="freepik--Window--inject-71" transform="translate(27.62 90.139)">
      <line id="Line_42" data-name="Line 42" x2="674.076" transform="translate(15.119 485.592)" fill="none" stroke="#263238" stroke-miterlimit="10" stroke-width="1"/>
      <line id="Line_43" data-name="Line 43" x2="674.076" transform="translate(15.119 357.969)" fill="none" stroke="#263238" stroke-miterlimit="10" stroke-width="1"/>
      <line id="Line_44" data-name="Line 44" x2="674.076" transform="translate(15.119 230.345)" fill="none" stroke="#263238" stroke-miterlimit="10" stroke-width="1"/>
      <line id="Line_45" data-name="Line 45" x2="674.076" transform="translate(15.119 102.721)" fill="none" stroke="#263238" stroke-miterlimit="10" stroke-width="1"/>
      <line id="Line_46" data-name="Line 46" y2="455.639" transform="translate(168.381 30.254)" fill="none" stroke="#263238" stroke-miterlimit="10" stroke-width="1"/>
      <line id="Line_47" data-name="Line 47" y2="455.639" transform="translate(573.546 30.254)" fill="none" stroke="#263238" stroke-miterlimit="10" stroke-width="1"/>
      <line id="Line_48" data-name="Line 48" x1="5.017" y2="5.285" transform="translate(178.416 199.154)" fill="none" stroke="#263238" stroke-miterlimit="10" stroke-width="1"/>
      <line id="Line_49" data-name="Line 49" x1="79.407" y2="83.739" transform="translate(189.47 109.043)" fill="none" stroke="#263238" stroke-miterlimit="10" stroke-width="1"/>
      <line id="Line_50" data-name="Line 50" x1="44.604" y2="45.842" transform="translate(229.224 122.673)" fill="none" stroke="#263238" stroke-miterlimit="10" stroke-width="1"/>
      <line id="Line_51" data-name="Line 51" x1="5.017" y2="5.285" transform="translate(585.872 199.154)" fill="none" stroke="#263238" stroke-miterlimit="10" stroke-width="1"/>
      <line id="Line_52" data-name="Line 52" x1="79.391" y2="83.739" transform="translate(596.926 109.043)" fill="none" stroke="#263238" stroke-miterlimit="10" stroke-width="1"/>
      <line id="Line_53" data-name="Line 53" x1="44.604" y2="45.842" transform="translate(636.68 122.673)" fill="none" stroke="#263238" stroke-miterlimit="10" stroke-width="1"/>
      <line id="Line_54" data-name="Line 54" x1="5.017" y2="5.285" transform="translate(0 456.876)" fill="none" stroke="#263238" stroke-miterlimit="10" stroke-width="1"/>
      <line id="Line_55" data-name="Line 55" x1="79.391" y2="83.756" transform="translate(11.055 366.749)" fill="none" stroke="#263238" stroke-miterlimit="10" stroke-width="1"/>
      <line id="Line_56" data-name="Line 56" x1="44.621" y2="45.858" transform="translate(50.792 380.379)" fill="none" stroke="#263238" stroke-miterlimit="10" stroke-width="1"/>
      <line id="Line_57" data-name="Line 57" x1="5.001" y2="5.285" transform="translate(65.677 90.128)" fill="none" stroke="#263238" stroke-miterlimit="10" stroke-width="1"/>
      <line id="Line_58" data-name="Line 58" x1="79.391" y2="83.739" transform="translate(76.731)" fill="none" stroke="#263238" stroke-miterlimit="10" stroke-width="1"/>
      <line id="Line_59" data-name="Line 59" x1="44.604" y2="45.842" transform="translate(116.469 13.63)" fill="none" stroke="#263238" stroke-miterlimit="10" stroke-width="1"/>
      <line id="Line_60" data-name="Line 60" x1="5.001" y2="5.285" transform="translate(436.958 90.128)" fill="none" stroke="#263238" stroke-miterlimit="10" stroke-width="1"/>
      <line id="Line_61" data-name="Line 61" x1="79.391" y2="83.739" transform="translate(448.013)" fill="none" stroke="#263238" stroke-miterlimit="10" stroke-width="1"/>
      <line id="Line_62" data-name="Line 62" x1="44.604" y2="45.842" transform="translate(487.75 13.63)" fill="none" stroke="#263238" stroke-miterlimit="10" stroke-width="1"/>
      <line id="Line_63" data-name="Line 63" x1="5.017" y2="5.285" transform="translate(322.145 331.728)" fill="none" stroke="#263238" stroke-miterlimit="10" stroke-width="1"/>
      <line id="Line_64" data-name="Line 64" x1="79.391" y2="83.739" transform="translate(333.2 241.617)" fill="none" stroke="#263238" stroke-miterlimit="10" stroke-width="1"/>
      <line id="Line_65" data-name="Line 65" x1="44.604" y2="45.842" transform="translate(372.954 255.247)" fill="none" stroke="#263238" stroke-miterlimit="10" stroke-width="1"/>
    </g>
    <g id="freepik--Plants--inject-71" transform="translate(649.153 220.939)">
      <path id="Path_1732" data-name="Path 1732" d="M447.2,605.22s-41.41-88.238-32.412-90.78,27.863,11.506,27.863,11.506S387.29,377.6,401.623,366.095s41.092,47.38,41.092,47.38-28.582-90.863-25.22-125.433,39.67-1.271,39.67-1.271-29.084-124.045-2.074-130.45S481.2,298.261,481.2,298.261s8.864-106.15,19.685-76.731S488.958,349.4,488.958,349.4s14.835-33.248,23.08-2.559-16.39,154.734-16.39,154.734,20.939-20.454,22.9,5.118-43.35,104.862-43.35,104.862l-25.638,2.609Z" transform="translate(-399.253 -156.119)" fill="#f1a31d"/>
      <path id="Path_1733" data-name="Path 1733" d="M447.2,605.22s-41.41-88.238-32.412-90.78,27.863,11.506,27.863,11.506S387.29,377.6,401.623,366.095s41.092,47.38,41.092,47.38-28.582-90.863-25.22-125.433,39.67-1.271,39.67-1.271-29.084-124.045-2.074-130.45S481.2,298.261,481.2,298.261s8.864-106.15,19.685-76.731S488.958,349.4,488.958,349.4s14.835-33.248,23.08-2.559-16.39,154.734-16.39,154.734,20.939-20.454,22.9,5.118-43.35,104.862-43.35,104.862l-25.638,2.609Z" transform="translate(-399.253 -156.119)" fill="#fff" opacity="0.6"/>
      <path id="Path_1734" data-name="Path 1734" d="M449.406,577.725s-34.519-61.379-28.13-72.9,25.572,15.353,25.572,15.353S403.363,411.468,409.769,401.25s26.859,34.536,26.859,34.536-7.677-149.616,5.1-144.515,14.015,76.648,14.015,76.648-7.66-170.07,3.847-164.953,10.235,194.371,10.235,194.371,23.013-72.9,26.843-39.653-29.4,122.774-29.4,122.774,31.96-70.343,35.857-33.181-25.639,106.066-25.639,106.066,11.507-28.13,11.507-12.794-8.948,34.536-8.948,34.536" transform="translate(-392.615 -124.695)" fill="none" stroke="#263238" stroke-linecap="round" stroke-linejoin="round" stroke-width="1"/>
    </g>
    <g id="freepik--character-2--inject-71" transform="translate(409.027 306.184)">
      <path id="Path_1735" data-name="Path 1735" d="M383.366,313.24l46.577,101.651-29.3,8.262L366.09,380.137Z" transform="translate(-181.427 -135.711)" fill="#f1a31d"/>
      <g id="Group_116" data-name="Group 116" transform="translate(184.663 177.529)" clip-path="url(#clip-path)">
        <g id="Group_115" data-name="Group 115" transform="translate(2.442 14.032)" opacity="0.1">
          <path id="Path_1736" data-name="Path 1736" d="M372.184,332.7l-1.974,7.676,38.684,66.58,5.552-1.555Z" transform="translate(-365.761 -314.186)"/>
          <path id="Path_1737" data-name="Path 1737" d="M399.878,403.01l5.586-1.572L369.473,343.12,367.55,350.6Z" transform="translate(-367.55 -307.179)"/>
          <path id="Path_1738" data-name="Path 1738" d="M375.07,321.63l-2.04,7.927,44.42,81.9,5.486-1.555Z" transform="translate(-363.865 -321.63)"/>
        </g>
      </g>
      <path id="Path_1740" data-name="Path 1740" d="M383.366,313.24l46.577,101.651-29.3,8.262L366.09,380.137Z" transform="translate(-181.427 -135.711)" fill="none" stroke="#263238" stroke-linecap="round" stroke-linejoin="round" stroke-width="1"/>
      <path id="Path_1741" data-name="Path 1741" d="M345.419,296.31,284.76,324.256,317.1,455.493,306.8,510.7h115.08l-11.389-59.99,27.93-126.085-63.6-26.107Z" transform="translate(-236.116 -147.095)" fill="#f1a31d"/>
      <g id="Group_118" data-name="Group 118" transform="translate(48.644 149.215)" clip-path="url(#clip-path-2)">
        <g id="Group_117" data-name="Group 117" transform="translate(14.383 2.024)" opacity="0.1">
          <path id="Path_1742" data-name="Path 1742" d="M332.832,506.813l2.325-52.28a3.7,3.7,0,0,0,0-.736L311.324,302.09l-7.024,3.228,23.414,149.265-2.325,52.23Z" transform="translate(-286.003 -294.447)"/>
          <path id="Path_1743" data-name="Path 1743" d="M340.143,445.1v-.2l-18.9-147.375-7.074,3.345,18.564,144.95,4.783,64.155h7.459Z" transform="translate(-279.366 -297.52)"/>
          <path id="Path_1744" data-name="Path 1744" d="M319.149,503.4l6.69-51.026a3.708,3.708,0,0,0,0-1.137l-25.5-144.081-6.974,3.211,25.087,141.605-6.69,51.427Z" transform="translate(-293.36 -291.038)"/>
          <path id="Path_1745" data-name="Path 1745" d="M388.182,313.747l-7.007-2.877L355.6,443.11a3.8,3.8,0,0,0,0,1.3l9.2,56.495h7.543l-9.349-57.03.217-1.087-.368-1.873,5.6-25.237Z" transform="translate(-251.544 -288.543)"/>
          <path id="Path_1746" data-name="Path 1746" d="M337.966,305.29l-7.426.217,6.171,199.154h7.426Z" transform="translate(-268.359 -292.295)"/>
          <path id="Path_1747" data-name="Path 1747" d="M353.574,445.6l24.7-135.835-7.024-2.893L346.165,444.913a3.342,3.342,0,0,0,0,1.288l9.8,57.4h7.543Z" transform="translate(-257.894 -291.233)"/>
          <path id="Path_1748" data-name="Path 1748" d="M345.5,444.2,364.279,305l-7.108-2.91-19.1,141.572a3.345,3.345,0,0,0,0,.9L345,506.813h7.476Z" transform="translate(-263.314 -294.447)"/>
        </g>
      </g>
      <path id="Path_1750" data-name="Path 1750" d="M345.419,296.31,284.76,324.256,317.1,455.493,306.8,510.7h115.08l-11.389-59.99,27.93-126.085-63.6-26.107Z" transform="translate(-236.116 -147.095)" fill="none" stroke="#263238" stroke-linecap="round" stroke-linejoin="round" stroke-width="1"/>
      <path id="Path_1751" data-name="Path 1751" d="M303.972,313.02,256.19,416.494l30.505,6.439,34.553-43.015Z" transform="translate(-255.328 -135.859)" fill="#f1a31d"/>
      <g id="Group_120" data-name="Group 120" transform="translate(0.862 177.161)" clip-path="url(#clip-path-3)">
        <g id="Group_119" data-name="Group 119" transform="translate(5.904 10.185)" opacity="0.1">
          <path id="Path_1752" data-name="Path 1752" d="M305.651,342.1,272.37,402.659l3.445.719,7.961-9.918,23.9-43.483Z" transform="translate(-251.214 -303.651)"/>
          <path id="Path_1753" data-name="Path 1753" d="M306.289,338.569l-2.174-8.429L266.97,408.795l5.6,1.187Z" transform="translate(-254.845 -311.693)"/>
          <path id="Path_1754" data-name="Path 1754" d="M259.72,413.636l5.6,1.187,41.092-87.251-2.191-8.463Z" transform="translate(-259.72 -319.11)"/>
        </g>
        <path id="Path_1755" data-name="Path 1755" d="M284.037,323.32,300.9,368.559,283.97,342.653" transform="translate(-237.51 -306.094)" fill="none" stroke="#263238" stroke-miterlimit="10" stroke-width="1"/>
      </g>
      <path id="Path_1757" data-name="Path 1757" d="M303.972,313.02,256.19,416.494l30.505,6.439,34.553-43.015Z" transform="translate(-255.328 -135.859)" fill="none" stroke="#263238" stroke-linecap="round" stroke-linejoin="round" stroke-width="1"/>
      <path id="Path_1758" data-name="Path 1758" d="M289.233,369.51l60.291,68.754-11.707,13.229-75.979-60.509s-10.419-5.017-4.164-15.219" transform="translate(-255.674 -97.873)" fill="#f1a31d"/>
      <g id="Group_122" data-name="Group 122" transform="translate(0 271.637)" clip-path="url(#clip-path-4)">
        <g id="Group_121" data-name="Group 121" transform="translate(11.8)" opacity="0.1">
          <path id="Path_1759" data-name="Path 1759" d="M332.87,443.047l5.653-4.833-30.4-35.389L278.9,369.51l-7.86,1.555Z" transform="translate(-257.142 -369.51)"/>
          <path id="Path_1760" data-name="Path 1760" d="M326.416,445.162l5.034,4.014,4.733-4.164L271.159,371.09l-8.429,1.656Z" transform="translate(-262.73 -368.448)"/>
        </g>
      </g>
      <path id="Path_1762" data-name="Path 1762" d="M289.233,369.51l60.291,68.754-11.707,13.229-75.979-60.509s-10.419-5.017-4.164-15.219" transform="translate(-255.674 -97.873)" fill="none" stroke="#263238" stroke-linecap="round" stroke-linejoin="round" stroke-width="1"/>
      <path id="Path_1763" data-name="Path 1763" d="M308.584,411.217c1.672-.937,30.756-7.894,31.158-4.332s9.065,7.492,13.012,7.492,7.894-3.161,8.68,1.572-3.546,5.134-7.091,5.519-15.788-3.546-15.788-3.546-11.44,9.466-16.172,11.824-13.38,1.672-16.557-.786S298.348,416.736,308.584,411.217Z" transform="translate(-224.417 -73.418)" fill="#fff" stroke="#263238" stroke-linecap="round" stroke-linejoin="round" stroke-width="1"/>
      <path id="Path_1764" data-name="Path 1764" d="M322.05,407.141s11.038-3.161,13.38-1.974,3.562,24.852,3.562,24.852-1.187,2.358-3.562,0-10.252-20.069-10.252-20.069" transform="translate(-211.041 -74.075)" fill="#fff" stroke="#263238" stroke-linecap="round" stroke-linejoin="round" stroke-width="1"/>
      <path id="Path_1765" data-name="Path 1765" d="M319.372,407.058s11.439-2.76,13.814,1.572,8.279,23.665,3.546,24.468-6.305-5.536-6.305-5.536l-7.493-13.8-5.134-.786" transform="translate(-213.899 -73.206)" fill="#fff" stroke="#263238" stroke-linecap="round" stroke-linejoin="round" stroke-width="1"/>
      <path id="Path_1766" data-name="Path 1766" d="M316.39,409.3s5.519-2.358,8.279-.385,15.386,22.076,13.012,22.879-7.894.385-8.68-1.187-11.038-15.052-11.038-15.052" transform="translate(-214.847 -71.904)" fill="#fff" stroke="#263238" stroke-linecap="round" stroke-linejoin="round" stroke-width="1"/>
      <path id="Path_1767" data-name="Path 1767" d="M314,414.235s5.118-4.733,7.877-3.144,14.2,16.557,11.841,18.129-3.947,0-6.305-3.144a27.592,27.592,0,0,0-5.92-5.519l-4.733,1.572" transform="translate(-216.454 -70.131)" fill="#fff" stroke="#263238" stroke-linecap="round" stroke-linejoin="round" stroke-width="1"/>
      <path id="Path_1768" data-name="Path 1768" d="M391.749,370.83,371.68,439.116,386.2,449.251l32.8-52.715s13.48-15.219,5.017-23.782" transform="translate(-177.668 -96.985)" fill="#f1a31d"/>
      <g id="Group_124" data-name="Group 124" transform="translate(194.012 273.845)" clip-path="url(#clip-path-5)">
        <g id="Group_123" data-name="Group 123" transform="translate(0.033 0.268)" opacity="0.1">
          <path id="Path_1769" data-name="Path 1769" d="M383.273,448.068l.251-.418L411.3,371.838l-7.76-.468L376.7,444.656l3.01,2.091Z" transform="translate(-368.338 -370.734)"/>
          <path id="Path_1770" data-name="Path 1770" d="M371.7,439.058l6.3,4.415,25.923-71.814-.719-.251-6.941-.418Z" transform="translate(-371.7 -370.99)"/>
          <path id="Path_1771" data-name="Path 1771" d="M415.328,376.071a9.4,9.4,0,0,0-2.375-4l-3.98-.234L388,428.017l19.935-32.077Z" transform="translate(-360.739 -370.418)"/>
        </g>
      </g>
      <path id="Path_1773" data-name="Path 1773" d="M391.749,370.83,371.68,439.116,386.2,449.251l32.8-52.715s13.48-15.219,5.017-23.782" transform="translate(-177.668 -96.985)" fill="none" stroke="#263238" stroke-linecap="round" stroke-linejoin="round" stroke-width="1"/>
      <path id="Path_1774" data-name="Path 1774" d="M399.007,411.217c-1.672-.937-30.773-7.894-31.157-4.332s-9.081,7.492-13.012,7.492-7.894-3.161-8.68,1.572,3.546,5.134,7.091,5.519,15.788-3.546,15.788-3.546,11.439,9.466,16.172,11.824,13.38,1.672,16.557-.786S409.259,416.736,399.007,411.217Z" transform="translate(-194.893 -73.418)" fill="#fff" stroke="#263238" stroke-linecap="round" stroke-linejoin="round" stroke-width="1"/>
      <path id="Path_1775" data-name="Path 1775" d="M368.485,407.141s-11.038-3.161-13.379-1.974-3.546,24.852-3.546,24.852,1.188,2.358,3.546,0,10.269-20.069,10.269-20.069" transform="translate(-191.198 -74.075)" fill="#fff" stroke="#263238" stroke-linecap="round" stroke-linejoin="round" stroke-width="1"/>
      <path id="Path_1776" data-name="Path 1776" d="M372.706,407.058s-11.423-2.76-13.8,1.572-8.362,23.665-3.546,24.468,6.3-5.536,6.3-5.536l7.493-13.8,5.134-.786" transform="translate(-189.866 -73.206)" fill="#fff" stroke="#263238" stroke-linecap="round" stroke-linejoin="round" stroke-width="1"/>
      <path id="Path_1777" data-name="Path 1777" d="M376.019,409.3s-5.519-2.358-8.279-.385-15.386,22.076-13.012,22.879,7.877.385,8.68-1.187,11.038-15.052,11.038-15.052" transform="translate(-189.266 -71.904)" fill="#fff" stroke="#263238" stroke-linecap="round" stroke-linejoin="round" stroke-width="1"/>
      <path id="Path_1778" data-name="Path 1778" d="M377.744,414.221s-5.118-4.75-7.86-3.077-14.2,16.557-11.824,18.129,3.947,0,6.305-3.144a27.6,27.6,0,0,1,5.921-5.519l4.733,1.572" transform="translate(-187.044 -70.117)" fill="#fff" stroke="#263238" stroke-linecap="round" stroke-linejoin="round" stroke-width="1"/>
      <path id="Path_1779" data-name="Path 1779" d="M329.781,293.474s-9.55,2.943-13.6,8.83.736,51.461.736,51.461l30.522-16.908,31.977,20.22s-2.944-46.678-5.519-53.3-18.748-14.333-24.267-13.6S329.781,293.474,329.781,293.474Z" transform="translate(-216.079 -151.25)" fill="#f1a31d" stroke="#263238" stroke-linecap="round" stroke-linejoin="round" stroke-width="1"/>
      <path id="Path_1780" data-name="Path 1780" d="M321.03,277.118V319.4l20.22,54.4,17.276-55.508V276.75Z" transform="translate(-211.727 -160.248)" fill="#fff" stroke="#263238" stroke-linecap="round" stroke-linejoin="round" stroke-width="1"/>
      <path id="Path_1781" data-name="Path 1781" d="M321,292.3a33.833,33.833,0,0,0,19.484,6.138h0a33.783,33.783,0,0,0,18.012-5.185V276.75l-37.5.418Z" transform="translate(-211.747 -160.248)" fill="#263238" stroke="#263238" stroke-linecap="round" stroke-linejoin="round" stroke-width="1"/>
      <path id="Path_1782" data-name="Path 1782" d="M348.792,333.088h0a34.068,34.068,0,0,1-34.068-34.051l-6-47.9A40.139,40.139,0,0,1,348.858,211h0A40.139,40.139,0,0,1,389,251.138l-6.221,47.832A34.051,34.051,0,0,1,348.792,333.088Z" transform="translate(-220.005 -204.461)" fill="#fff" stroke="#263238" stroke-linecap="round" stroke-linejoin="round" stroke-width="1"/>
      <path id="Path_1783" data-name="Path 1783" d="M337.91,257.035s8.68-7.275,19.049.569" transform="translate(-200.376 -175.57)" fill="none" stroke="#263238" stroke-linecap="round" stroke-linejoin="round" stroke-width="1"/>
      <path id="Path_1784" data-name="Path 1784" d="M332.02,256.127a13.145,13.145,0,0,0-8.68-1.957" transform="translate(-210.174 -175.499)" fill="none" stroke="#263238" stroke-linecap="round" stroke-linejoin="round" stroke-width="1"/>
      <path id="Path_1785" data-name="Path 1785" d="M339.92,245.885s9.249-4.482,14.851,4.2" transform="translate(-199.025 -181.781)" fill="none" stroke="#263238" stroke-linecap="round" stroke-linejoin="round" stroke-width="1"/>
      <path id="Path_1786" data-name="Path 1786" d="M331,267.36s3.93,3.077,7.292,0" transform="translate(-205.023 -166.562)" fill="none" stroke="#263238" stroke-linecap="round" stroke-linejoin="round" stroke-width="1"/>
      <path id="Path_1787" data-name="Path 1787" d="M328.7,271.38s8.128,5.017,12.878,0" transform="translate(-206.569 -163.859)" fill="none" stroke="#263238" stroke-linecap="round" stroke-linejoin="round" stroke-width="1"/>
      <path id="Path_1788" data-name="Path 1788" d="M370.295,247.325s-33.583,31.007-42.948,53.6-.97,46.193,4.2,52.983,8.362,7.743,8.362,7.743-17.761,6.79-29.385-10.971-8.73-37.8-5.168-51.678,2.576-54.588,10.653-68.152,19.7-23.581,39.085-21.324,29.7,12.276,35.84,24.869,3.228,33.917,5.168,43.283,10.336,37.463,12.276,54.254-20.956,28.749-24.568,30.371a21.49,21.49,0,0,1-7.743,1.672s7.743-38.75,9.366-61.044,1.723-35.539,1.723-35.539S371.917,248.3,370.295,247.325Z" transform="translate(-224.382 -205.665)" fill="#263238"/>
      <g id="Group_125" data-name="Group 125" transform="translate(77.828 3.545)" clip-path="url(#clip-path-6)">
        <path id="Path_1789" data-name="Path 1789" d="M366.073,219s-3.964,10.921-32.479,42.212-36.258,61.144-27.6,90.312" transform="translate(-301.919 -202.626)" fill="none" stroke="#707070" stroke-miterlimit="10" stroke-width="1"/>
        <path id="Path_1790" data-name="Path 1790" d="M362.666,212.48s-15.687,12.995-35.121,32.462a181.983,181.983,0,0,0-30.3,40.59" transform="translate(-305.553 -207.01)" fill="none" stroke="#707070" stroke-miterlimit="10" stroke-width="1"/>
        <path id="Path_1791" data-name="Path 1791" d="M344.77,220.57s11.908,21.641,18.4,34.636,14.082,86.03-8.647,112.053" transform="translate(-273.592 -201.57)" fill="none" stroke="#707070" stroke-miterlimit="10" stroke-width="1"/>
        <line id="Line_66" data-name="Line 66" x2="5.017" y2="36.978" transform="translate(63.067 1.138)" fill="none" stroke="#707070" stroke-miterlimit="10" stroke-width="1"/>
      </g>
      <path id="Path_1793" data-name="Path 1793" d="M370.295,247.325s-33.583,31.007-42.948,53.6-.97,46.193,4.2,52.983,8.362,7.743,8.362,7.743-17.761,6.79-29.385-10.971-8.73-37.8-5.168-51.678,2.576-54.588,10.653-68.152,19.7-23.581,39.085-21.324,29.7,12.276,35.84,24.869,3.228,33.917,5.168,43.283,10.336,37.463,12.276,54.254-20.956,28.749-24.568,30.371a21.49,21.49,0,0,1-7.743,1.672s7.743-38.75,9.366-61.044,1.723-35.539,1.723-35.539S371.917,248.3,370.295,247.325Z" transform="translate(-224.382 -205.665)" fill="none" stroke="#263238" stroke-linecap="round" stroke-linejoin="round" stroke-width="1"/>
      <rect id="Rectangle_71" data-name="Rectangle 71" width="14.851" height="29.719" rx="2.96" transform="translate(75.503 63.302)" fill="#fff" stroke="#263238" stroke-linecap="round" stroke-linejoin="round" stroke-width="1"/>
      <rect id="Rectangle_72" data-name="Rectangle 72" width="14.851" height="29.719" rx="2.96" transform="translate(166.266 63.302)" fill="#fff" stroke="#263238" stroke-linecap="round" stroke-linejoin="round" stroke-width="1"/>
      <path id="Path_1794" data-name="Path 1794" d="M398.219,270.392V254.236a47.146,47.146,0,0,0-47.146-47.146h0a47.163,47.163,0,0,0-47.163,47.146v16.156" transform="translate(-223.239 -207.09)" fill="none" stroke="#263238" stroke-linejoin="round" stroke-width="2"/>
      <path id="Path_1795" data-name="Path 1795" d="M368.325,262.62s-2.091,16.172-21.875,22.762" transform="translate(-194.634 -169.75)" fill="none" stroke="#263238" stroke-linecap="round" stroke-linejoin="round" stroke-width="1"/>
      <path id="Path_1796" data-name="Path 1796" d="M351.563,276.855c.836,2.425-1.522,5.435-5.285,6.69s-7.459.4-8.362-2.024,1.522-5.435,5.268-6.69S350.777,274.43,351.563,276.855Z" transform="translate(-200.499 -161.925)" fill="none" stroke="#263238" stroke-linecap="round" stroke-linejoin="round" stroke-width="1"/>
    </g>
    <g id="freepik--character-1--inject-71" transform="translate(88.932 304.177)">
      <path id="Path_1797" data-name="Path 1797" d="M171.385,288.468,102.28,321.4l19.935,195.29H259.974l19.484-198.535L214.517,288Z" transform="translate(-38.727 -150.676)" fill="#f1a31d" stroke="#263238" stroke-linecap="round" stroke-linejoin="round" stroke-width="1"/>
      <circle id="Ellipse_23" data-name="Ellipse 23" cx="2.341" cy="2.341" r="2.341" transform="translate(158.012 192.698)" fill="#263238"/>
      <path id="Path_1798" data-name="Path 1798" d="M163.443,331.851a2.341,2.341,0,1,1-2.341-2.341A2.341,2.341,0,0,1,163.443,331.851Z" transform="translate(-0.748 -122.763)" fill="#263238"/>
      <path id="Path_1799" data-name="Path 1799" d="M196.156,309.06l-18.882,21.056-8.061,20.454-8.68-20.755L142.27,309.06V272.2h53.886Z" transform="translate(-11.837 -161.301)" fill="#fff" stroke="#263238" stroke-linecap="round" stroke-linejoin="round" stroke-width="1"/>
      <path id="Path_1800" data-name="Path 1800" d="M142.27,288.59a37.83,37.83,0,0,0,29.268,13.8h0a37.729,37.729,0,0,0,24.618-9.1V272.2H142.27Z" transform="translate(-11.837 -161.301)" fill="#263238" stroke="#263238" stroke-linecap="round" stroke-linejoin="round" stroke-width="1"/>
      <rect id="Rectangle_73" data-name="Rectangle 73" width="75.895" height="122.974" rx="20.42" transform="translate(121.753 7.743)" fill="#fff" stroke="#263238" stroke-linecap="round" stroke-linejoin="round" stroke-width="1"/>
      <path id="Path_1801" data-name="Path 1801" d="M168.356,243.12,167.236,270a5.686,5.686,0,0,1-3.83,5.268c-2.024.619-4.332,0-5.586-4.566" transform="translate(-1.38 -180.855)" fill="none" stroke="#263238" stroke-linecap="round" stroke-linejoin="round" stroke-width="1"/>
      <path id="Path_1802" data-name="Path 1802" d="M151,265.53h30.1S175.836,277,165.617,277,151,265.53,151,265.53Z" transform="translate(-5.966 -165.786)" fill="#263238" stroke="#263238" stroke-linecap="round" stroke-linejoin="round" stroke-width="1"/>
      <path id="Path_1803" data-name="Path 1803" d="M153.141,269.561h25.354A24.693,24.693,0,0,0,181,265.53H151A21.923,21.923,0,0,0,153.141,269.561Z" transform="translate(-5.966 -165.786)" fill="#fff" stroke="#263238" stroke-linecap="round" stroke-linejoin="round" stroke-width="1"/>
      <ellipse id="Ellipse_24" data-name="Ellipse 24" cx="2.174" cy="5.118" rx="2.174" ry="5.118" transform="translate(142.508 64.121)" fill="#263238"/>
      <ellipse id="Ellipse_25" data-name="Ellipse 25" cx="2.174" cy="5.118" rx="2.174" ry="5.118" transform="translate(175.021 64.121)" fill="#263238"/>
      <path id="Path_1804" data-name="Path 1804" d="M166.16,239.807s7.426-4.649,15.8,2.793" transform="translate(4.228 -184.048)" fill="none" stroke="#263238" stroke-linecap="round" stroke-linejoin="round" stroke-width="1"/>
      <path id="Path_1805" data-name="Path 1805" d="M175.028,210.52h0a37.948,37.948,0,0,0-37.948,37.948v34.569h3.412V268.788s15.487,0,33.767-9.9,22.9-26.057,22.9-26.057,4.031,19.517,8.362,23.23l4.348,3.713v23.548h3.094V248.468A37.948,37.948,0,0,0,175.028,210.52Z" transform="translate(-15.327 -202.777)" fill="#263238" stroke="#263238" stroke-linecap="round" stroke-linejoin="round" stroke-width="1"/>
      <path id="Path_1806" data-name="Path 1806" d="M135.574,242.94h7.108v28.181h-7.108a6.824,6.824,0,0,1-6.824-6.824V249.73a6.824,6.824,0,0,1,6.824-6.79Z" transform="translate(-20.928 -180.976)" fill="#fff" stroke="#263238" stroke-linecap="round" stroke-linejoin="round" stroke-width="1"/>
      <path id="Path_1807" data-name="Path 1807" d="M6.824,0h7.108V28.181H6.824A6.824,6.824,0,0,1,0,21.357V6.79A6.824,6.824,0,0,1,6.824,0Z" transform="translate(211.129 90.144) rotate(180)" fill="#fff" stroke="#263238" stroke-linecap="round" stroke-linejoin="round" stroke-width="1"/>
      <path id="Path_1808" data-name="Path 1808" d="M133.38,267.854V249.875a43.985,43.985,0,0,1,43.985-43.985h0a44,44,0,0,1,43.985,43.985v17.979" transform="translate(-17.815 -205.89)" fill="none" stroke="#263238" stroke-linejoin="round" stroke-width="2"/>
      <path id="Path_1809" data-name="Path 1809" d="M195.091,259.79s-2.174,16.724-22.611,23.548" transform="translate(8.478 -169.646)" fill="none" stroke="#263238" stroke-linecap="round" stroke-linejoin="round" stroke-width="1"/>
      <path id="Path_1810" data-name="Path 1810" d="M177.719,274.525c.87,2.509-1.572,5.619-5.452,6.974s-7.727.4-8.6-2.107,1.572-5.619,5.452-6.974S176.9,272.017,177.719,274.525Z" transform="translate(2.436 -161.569)" fill="none" stroke="#263238" stroke-linecap="round" stroke-linejoin="round" stroke-width="1"/>
      <path id="Path_1811" data-name="Path 1811" d="M125.782,307.97,67.33,431.647l24.117,21.039,43.6-54.722Z" transform="translate(-62.229 -137.248)" fill="#f1a31d" stroke="#263238" stroke-linecap="round" stroke-linejoin="round" stroke-width="1"/>
      <path id="Path_1812" data-name="Path 1812" d="M100.479,330.64l14.2,47.9L97.82,351.027" transform="translate(-41.726 -122.003)" fill="none" stroke="#263238" stroke-miterlimit="10" stroke-width="1"/>
      <path id="Path_1813" data-name="Path 1813" d="M211.952,306.03l55.659,124.312-34.318,14.851-30.622-49.17Z" transform="translate(28.779 -138.552)" fill="#f1a31d" stroke="#263238" stroke-linecap="round" stroke-linejoin="round" stroke-width="1"/>
      <path id="Path_1814" data-name="Path 1814" d="M100.923,381.828l50.09,46.845L137.1,444.913,64.28,399.74l8.362-22.26" transform="translate(-64.28 -90.506)" fill="#f1a31d" stroke="#263238" stroke-linecap="round" stroke-linejoin="round" stroke-width="1"/>
      <path id="Path_1815" data-name="Path 1815" d="M114.191,408.956c2.04-1.1,36.175-9.282,36.643-5.1s10.67,8.814,15.3,8.814,9.282-3.713,10.2,1.856-4.164,6.021-8.362,6.489-18.547-4.181-18.547-4.181-13.38,11.138-19.016,13.931-15.771,1.84-19.484-.937S102.133,415.445,114.191,408.956Z" transform="translate(-35.804 -73.565)" fill="#fff" stroke="#263238" stroke-linecap="round" stroke-linejoin="round" stroke-width="1"/>
      <path id="Path_1816" data-name="Path 1816" d="M130,404.156s12.995-3.713,15.771-2.308,4.181,29.217,4.181,29.217-1.4,2.776-4.181,0-12.042-23.732-12.042-23.732" transform="translate(-20.087 -74.334)" fill="#fff" stroke="#263238" stroke-linecap="round" stroke-linejoin="round" stroke-width="1"/>
      <path id="Path_1817" data-name="Path 1817" d="M126.876,404.069s13.38-3.245,16.223,1.856,9.75,27.829,4.181,28.749-7.426-6.489-7.426-6.489l-8.814-16.239-6.021-.92" transform="translate(-23.436 -73.311)" fill="#fff" stroke="#263238" stroke-linecap="round" stroke-linejoin="round" stroke-width="1"/>
      <path id="Path_1818" data-name="Path 1818" d="M123.35,406.7s6.506-2.776,9.75-.452,18.1,25.973,15.3,26.96-9.282.468-10.2-1.388S125.206,414.2,125.206,414.2" transform="translate(-24.559 -71.782)" fill="#fff" stroke="#263238" stroke-linecap="round" stroke-linejoin="round" stroke-width="1"/>
      <path id="Path_1819" data-name="Path 1819" d="M120.58,412.515s6.038-5.569,9.282-3.713,16.724,19.484,13.915,21.34-4.649,0-7.426-3.713a32.5,32.5,0,0,0-6.957-6.506l-5.569,1.856" transform="translate(-26.422 -69.699)" fill="#fff" stroke="#263238" stroke-linecap="round" stroke-linejoin="round" stroke-width="1"/>
      <path id="Path_1820" data-name="Path 1820" d="M227.758,374.822,198.39,436.8l18.9,9.984,55.542-58.853L256.892,370.29" transform="translate(25.901 -95.341)" fill="#f1a31d" stroke="#263238" stroke-linecap="round" stroke-linejoin="round" stroke-width="1"/>
      <path id="Path_1821" data-name="Path 1821" d="M232.22,408.956c-2.04-1.1-36.192-9.282-36.643-5.1s-10.67,8.814-15.32,8.814-9.265-3.713-10.2,1.856,4.181,6.021,8.362,6.489,18.547-4.181,18.547-4.181,13.38,11.138,19.016,13.931,15.771,1.84,19.484-.937S244.278,415.445,232.22,408.956Z" transform="translate(6.772 -73.565)" fill="#fff" stroke="#263238" stroke-linecap="round" stroke-linejoin="round" stroke-width="1"/>
      <path id="Path_1822" data-name="Path 1822" d="M196.342,404.156s-12.995-3.713-15.771-2.308-4.181,29.217-4.181,29.217,1.388,2.776,4.181,0,12.058-23.732,12.058-23.732" transform="translate(11.107 -74.334)" fill="#fff" stroke="#263238" stroke-linecap="round" stroke-linejoin="round" stroke-width="1"/>
      <path id="Path_1823" data-name="Path 1823" d="M201.254,404.069s-13.379-3.245-16.239,1.856-9.734,27.829-4.164,28.816,7.409-6.489,7.409-6.489l8.814-16.239,6.038-.92" transform="translate(12.685 -73.311)" fill="#fff" stroke="#263238" stroke-linecap="round" stroke-linejoin="round" stroke-width="1"/>
      <path id="Path_1824" data-name="Path 1824" d="M205.226,406.7s-6.489-2.776-9.734-.452-18.146,25.973-15.353,26.96,9.265.468,10.2-1.388S203.319,414.2,203.319,414.2" transform="translate(13.395 -71.782)" fill="#fff" stroke="#263238" stroke-linecap="round" stroke-linejoin="round" stroke-width="1"/>
      <path id="Path_1825" data-name="Path 1825" d="M207.231,412.515s-6.038-5.569-9.282-3.713-16.724,19.484-13.915,21.34,4.633,0,7.426-3.713a32.5,32.5,0,0,1,6.957-6.506l5.569,1.856" transform="translate(15.99 -69.699)" fill="#fff" stroke="#263238" stroke-linecap="round" stroke-linejoin="round" stroke-width="1"/>
    </g>
    <g id="freepik--text-balloon--inject-71" transform="translate(287.968 241.16)">
      <path id="Path_1826" data-name="Path 1826" d="M311.014,168.21H202.306a19.016,19.016,0,0,0-19.016,19v31.776A19.016,19.016,0,0,0,202.272,238.1h13.379l-18.246,23.866L238.43,238.1h72.584a19.016,19.016,0,0,0,18.965-19.066V187.259A19.016,19.016,0,0,0,311.014,168.21Z" transform="translate(-183.29 -168.21)" fill="#fff" stroke="#263238" stroke-miterlimit="10" stroke-width="1"/>
      <path id="Path_1827" data-name="Path 1827" d="M221.794,192.185a4.432,4.432,0,1,1-4.432-4.415,4.432,4.432,0,0,1,4.432,4.415Z" transform="translate(-163.359 -155.057)" fill="#263238"/>
      <path id="Path_1828" data-name="Path 1828" d="M233.354,192.185a4.432,4.432,0,1,1-4.415-4.415,4.432,4.432,0,0,1,4.415,4.415Z" transform="translate(-155.585 -155.057)" fill="#263238"/>
      <path id="Path_1829" data-name="Path 1829" d="M244.9,192.185a4.415,4.415,0,1,1-4.415-4.415A4.415,4.415,0,0,1,244.9,192.185Z" transform="translate(-147.799 -155.057)" fill="#263238"/>
    </g>
    <g id="freepik--device-2--inject-71" transform="translate(435.176 521.628)">
      <rect id="Rectangle_74" data-name="Rectangle 74" width="202.599" height="8.178" transform="translate(0 143.529)" fill="#fff" stroke="#263238" stroke-linecap="round" stroke-linejoin="round" stroke-width="1"/>
      <rect id="Rectangle_75" data-name="Rectangle 75" width="176.593" height="8.178" transform="translate(57.13 143.529)" fill="#fff" stroke="#263238" stroke-linecap="round" stroke-linejoin="round" stroke-width="1"/>
      <path id="Path_1830" data-name="Path 1830" d="M481.04,464.905H312.09l18.213-129h168.95Z" transform="translate(-243.888 -335.91)" fill="#fff" stroke="#263238" stroke-linecap="round" stroke-linejoin="round" stroke-width="1"/>
      <path id="Path_1831" data-name="Path 1831" d="M485.22,464.905H316.27l18.213-129h168.95Z" transform="translate(-241.077 -335.91)" fill="#263238" stroke="#263238" stroke-linecap="round" stroke-linejoin="round" stroke-width="1"/>
      <path id="Path_1832" data-name="Path 1832" d="M403.854,377.19l16.958,82.652h-43.6L360.27,377.19Zm-29.569,24.535a1.539,1.539,0,0,0,1.505,1.171l24.7-.234a1.539,1.539,0,0,0,1.472-1.907l-2.224-9.265a1.555,1.555,0,0,0-1.505-1.187l-24.7.234a1.555,1.555,0,0,0-1.488,1.907Z" transform="translate(-211.49 -308.152)" fill="#fff" stroke="#263238" stroke-linecap="round" stroke-linejoin="round" stroke-width="1"/>
    </g>
    <g id="freepik--device-1--inject-71" transform="translate(135.509 521.628)">
      <rect id="Rectangle_76" data-name="Rectangle 76" width="202.599" height="8.178" transform="translate(0 143.529)" fill="#fff" stroke="#263238" stroke-linecap="round" stroke-linejoin="round" stroke-width="1"/>
      <rect id="Rectangle_77" data-name="Rectangle 77" width="176.593" height="8.178" transform="translate(57.13 143.529)" fill="#fff" stroke="#263238" stroke-linecap="round" stroke-linejoin="round" stroke-width="1"/>
      <path id="Path_1833" data-name="Path 1833" d="M301.86,464.905H132.91l18.213-129h168.95Z" transform="translate(-64.708 -335.91)" fill="#fff" stroke="#263238" stroke-linecap="round" stroke-linejoin="round" stroke-width="1"/>
      <path id="Path_1834" data-name="Path 1834" d="M306.04,464.905H137.09l18.213-129h168.95Z" transform="translate(-61.897 -335.91)" fill="#263238" stroke="#263238" stroke-linecap="round" stroke-linejoin="round" stroke-width="1"/>
      <path id="Path_1835" data-name="Path 1835" d="M224.69,377.19l16.942,82.652h-43.6L181.09,377.19ZM195.1,401.725a1.555,1.555,0,0,0,1.505,1.171l24.7-.234a1.555,1.555,0,0,0,1.488-1.907l-2.241-9.265a1.538,1.538,0,0,0-1.505-1.187l-24.7.234a1.539,1.539,0,0,0-1.472,1.907Z" transform="translate(-32.31 -308.152)" fill="#fff" stroke="#263238" stroke-linecap="round" stroke-linejoin="round" stroke-width="1"/>
    </g>
    <g id="freepik--Table--inject-71" transform="translate(31.316 673.318)">
      <rect id="Rectangle_78" data-name="Rectangle 78" width="720.687" height="8.095" fill="#263238" stroke="#263238" stroke-linecap="round" stroke-linejoin="round" stroke-width="1"/>
    </g>
  </g>
</svg>
