<svg id="Component_3_1" data-name="Component 3 – 1" xmlns="http://www.w3.org/2000/svg" width="658.665" height="234.859" viewBox="0 0 658.665 234.859">
  <path id="Path_1602" data-name="Path 1602" d="M3470.7,1150.6l-8.889-1.693c-.2,1.935,1.307,2.281,2.18,2.994A96.89,96.89,0,0,1,3477.4,1165c16.729,20.15,18.938,43.907,6.078,66.713-8.785,15.581-21.589,27.386-36.093,37.45-26.576,18.44-56.333,29.786-87.223,38.428-38.43,10.752-77.714,16.754-117.384,20.483a1069.73,1069.73,0,0,1-147.094,3.76c-61.655-2.7-122.874-8.7-182.45-25.988-18.065-5.241-35.615-11.859-51.72-21.805-7.688-4.749-14.781-10.235-20.309-17.489q-14.481-19-3.083-40.047a67.372,67.372,0,0,1,14.242-17.437c13.073-11.883,28.2-20.589,43.979-28.252a129.364,129.364,0,0,0,15.79-9.164c45.093-30.385,94.963-49.158,147.889-60.284,56.536-11.885,113.815-14.507,171.38-13,38.358,1,76.575,3.767,114.461,10.108,27.593,4.619,54.7,11.075,80.624,21.89C3441.4,1136.582,3454.75,1146.267,3470.7,1150.6ZM2875.685,1201.3c-11.323,6.816-21.591,14.689-28.845,25.8-8.537,13.074-7.385,25.407,3.219,36.825,6.085,6.55,13.436,11.4,21.243,15.589,17.655,9.464,36.56,15.608,55.883,20.479,62.127,15.657,125.532,20.716,189.315,22.045a1036.108,1036.108,0,0,0,152.221-7.619c38.743-4.916,77.01-12.119,113.959-25.132,25.876-9.112,50.511-20.624,71.4-38.9,9.257-8.1,17.2-17.293,22.168-28.718,6.252-14.387,6.115-28.718-2.765-41.8-14.628-21.548-35.53-35.671-60.636-40.2-52.66-9.491-106.106-11.849-159.557-12.432a1156,1156,0,0,0-161.772,9.267c-49.565,6.44-98.425,16.113-145.884,32.092-8.958,3.016-18.329,5.385-26.334,10.452-22.846,14.46-43.41,31.414-56.808,55.6a20.766,20.766,0,0,1-6.806,7.682C2856.728,1225.123,2866.813,1213.559,2875.685,1201.3Zm518.819-69.48c-2.266-.712-4.514-1.488-6.8-2.125-30.241-8.43-61.147-13.232-92.332-16.084-65.517-5.99-131.042-6.865-196.428,1.761-45.588,6.013-89.665,17.626-131.573,36.856-1.836.843-3.953,1.3-5.56,3.344C3104.55,1116.58,3248.937,1114.3,3394.5,1131.817Z" transform="translate(-2833.091 -1097.979)" fill="#f1a31d"/>
</svg>
