<svg xmlns="http://www.w3.org/2000/svg" width="1171.234" height="378.694" viewBox="0 0 1171.234 378.694">
  <g id="Group_164" data-name="Group 164" transform="translate(-1438.265 -57.69)">
    <g id="Group_1" data-name="Group 1" transform="translate(1438.265 57.69)">
      <path id="Path_1" data-name="Path 1" d="M605.232,295.7V444.588H586.706a65,65,0,1,0-120.689,0H434.264V363.594H402.81v80.994h-33.5a64.71,64.71,0,0,0-55.5-97.993h-118.5l31.454,31.454h87.049a33.27,33.27,0,0,1,0,66.539H172.158V363.421H133.014v7.157a14.028,14.028,0,0,1-.818,1.966c-8.54,8.758-9.877,25.289,2.626,31.547a15.556,15.556,0,0,0,18.322-2.674c3.366-3.365,4.875-10.064,1.793-14.013a7.431,7.431,0,0,0-1.494-1.478,7.2,7.2,0,0,0-8.587-.189,6.828,6.828,0,0,0-2.705,4.374c-.031.234-.157,3.254.189,3.254-3.161.031-4.388-3.27-4.388-5.8.44-6.7,7.6-9.829,13.856-8.052,9.373,3.131,12.5,13.855,8.933,22.348-3.13,7.14-12.251,11.907-19.879,14.3V468.43a17.54,17.54,0,0,1-5.536,12.739L91.117,525.708H135l24.691-24.628-.063-.047a48.936,48.936,0,0,0,11.905-24.99H492.658a64.934,64.934,0,0,0,67.422,0h76.606v-211.8ZM526.361,454.024a33.546,33.546,0,1,1,33.546-33.546A33.587,33.587,0,0,1,526.361,454.024Z" transform="translate(-91.117 -264.247)" fill="#3aa3db"/>
      <ellipse id="Ellipse_1" data-name="Ellipse 1" cx="33.546" cy="33.546" rx="33.546" ry="33.546" transform="translate(1010.009 311.603)" fill="none"/>
      <path id="Path_2" data-name="Path 2" d="M450.039,476.043h31.454V264.249L450.039,295.7Z" transform="translate(114.437 -264.246)" fill="#3aa3db"/>
      <path id="Path_3" data-name="Path 3" d="M305.886,334.233A21.427,21.427,0,1,0,284.458,312.8,21.451,21.451,0,0,0,305.886,334.233Z" transform="translate(19.609 -248.709)" fill="#3aa3db"/>
      <path id="Path_4" data-name="Path 4" d="M138.31,334.233A21.427,21.427,0,1,0,116.882,312.8,21.451,21.451,0,0,0,138.31,334.233Z" transform="translate(-76.361 -248.709)" fill="#3aa3db"/>
      <path id="Path_5" data-name="Path 5" d="M212.181,453.459a21.427,21.427,0,1,0-21.428-21.43A21.451,21.451,0,0,0,212.181,453.459Z" transform="translate(-34.056 -180.428)" fill="#3aa3db"/>
    </g>
    <g id="Group_2" data-name="Group 2" transform="translate(2079.59 69.271)">
      <path id="Path_6" data-name="Path 6" d="M143.841,194.342a21.427,21.427,0,1,0-21.426-21.43A21.451,21.451,0,0,0,143.841,194.342Z" transform="translate(-106.204 -151.488)" fill="#3aa3db"/>
      <path id="Path_7" data-name="Path 7" d="M174.919,194.342a21.427,21.427,0,1,0-21.428-21.43A21.451,21.451,0,0,0,174.919,194.342Z" transform="translate(-88.406 -151.488)" fill="#3aa3db"/>
      <path id="Path_8" data-name="Path 8" d="M551.553,172.377a98.441,98.441,0,0,0-47.1,11.9c-6.747,3.664-10.238,13.84-10.474,18.684-.267,12.409-14.154,19.769-23.685,9.8-9.609-12.849,9.719-12.361,5.206-5.206,4.341,2.485,13.462.9,13.462-6.92,0-10.411-11.072-12.755-18.872-10.16-10.411,5.206-10.223,17.079-4.592,26.3,1.667,3.491-.063,4.7-1.73,6.008A60.9,60.9,0,0,0,443.871,303.3H402.136a64.383,64.383,0,0,0,4.655-24.111A65,65,0,1,0,281.446,303.3H242.278V165.852l-31.454,31.454v3.954a65.084,65.084,0,1,0,0,111.405v22.093h97.263a64.936,64.936,0,0,0,67.423,0H489.683v-.489a59.44,59.44,0,0,0,7.533.489,60.838,60.838,0,0,0,23.716-4.8,99.307,99.307,0,0,0,30.62,4.8c49.87,0,90.462-36.425,90.462-81.184C642.015,208.8,601.424,172.377,551.553,172.377ZM177.191,290.592a33.631,33.631,0,1,1,33.632-33.631A33.669,33.669,0,0,1,177.191,290.592Zm164.6,22.148a33.546,33.546,0,1,1,33.546-33.547A33.577,33.577,0,0,1,341.792,312.74Zm176.436-17.852a29.808,29.808,0,1,1-24.9-50.688,31.593,31.593,0,0,1,3.884-.252,29.792,29.792,0,0,1,21.011,50.94Zm33.325,8.681c-.377,0-.755-.016-1.132-.031a60.924,60.924,0,0,0-36.644-88.48,66.025,66.025,0,0,1,37.776-11.5c32.681,0,59.259,22.427,59.259,50.012C610.813,281.143,584.234,303.57,551.553,303.57Z" transform="translate(-112.107 -143.262)" fill="#3aa3db"/>
    </g>
  </g>
</svg>
